<mxfile host="Electron" modified="2025-03-01T11:04:06.119Z" agent="Mozilla/5.0 (Windows NT 10.0; Win64; x64) AppleWebKit/537.36 (KHTML, like Gecko) draw.io/23.1.5 Chrome/120.0.6099.109 Electron/28.1.0 Safari/537.36" etag="hX__gOEmW8KM1i45d-PV" version="23.1.5" type="device">
  <diagram name="Страница — 1" id="U14n6HDPvqasq2v1X9z4">
    <mxGraphModel dx="-39" dy="531" grid="1" gridSize="10" guides="1" tooltips="1" connect="1" arrows="1" fold="1" page="1" pageScale="1" pageWidth="827" pageHeight="1169" math="0" shadow="0">
      <root>
        <mxCell id="0" />
        <mxCell id="1" parent="0" />
        <mxCell id="FMrj6g29dec6llsaS4fv-6" value="x`" style="rounded=0;whiteSpace=wrap;html=1;strokeWidth=0;" parent="1" vertex="1">
          <mxGeometry x="910" y="310" width="1510" height="1310" as="geometry" />
        </mxCell>
        <mxCell id="9uL9f9SMJdjxr-tkgD8b-12" value="Person" style="swimlane;fontStyle=0;childLayout=stackLayout;horizontal=1;startSize=30;horizontalStack=0;resizeParent=1;resizeParentMax=0;resizeLast=0;collapsible=1;marginBottom=0;whiteSpace=wrap;html=1;" parent="1" vertex="1">
          <mxGeometry x="940" y="340" width="210" height="470" as="geometry">
            <mxRectangle x="905" y="350" width="110" height="30" as="alternateBounds" />
          </mxGeometry>
        </mxCell>
        <mxCell id="9uL9f9SMJdjxr-tkgD8b-13" value="&lt;pre style=&quot;margin-top: 0cm; margin-right: 25.5pt; margin-left: 0cm; text-align: justify; line-height: normal; vertical-align: baseline; font-size: 14px;&quot;&gt;&lt;pre style=&quot;margin: 0cm 25.5pt 0cm 0cm; line-height: normal; background: white; vertical-align: baseline;&quot;&gt;&lt;font style=&quot;font-size: 14px;&quot; face=&quot;Times New Roman&quot;&gt;-id: Integer&lt;br&gt;&lt;/font&gt;&lt;pre style=&quot;border-color: var(--border-color); margin: 0cm 25.5pt 0cm 0cm; line-height: normal; background-image: initial; background-position: initial; background-size: initial; background-repeat: initial; background-attachment: initial; background-origin: initial; background-clip: initial; vertical-align: baseline;&quot;&gt;&lt;font style=&quot;border-color: var(--border-color);&quot; face=&quot;Times New Roman&quot;&gt;-surname: &lt;span style=&quot;border-color: var(--border-color);&quot; lang=&quot;EN-US&quot;&gt;String&lt;/span&gt;&lt;br style=&quot;border-color: var(--border-color);&quot;&gt;&lt;span style=&quot;border-color: var(--border-color);&quot; lang=&quot;EN-US&quot;&gt;-name: &lt;/span&gt;&lt;span style=&quot;border-color: var(--border-color);&quot; lang=&quot;EN-US&quot;&gt;String&lt;/span&gt;&lt;br style=&quot;border-color: var(--border-color);&quot;&gt;&lt;span style=&quot;border-color: var(--border-color);&quot; lang=&quot;EN-US&quot;&gt;-middle_name: &lt;/span&gt;&lt;span style=&quot;border-color: var(--border-color);&quot; lang=&quot;EN-US&quot;&gt;String&lt;/span&gt;&lt;/font&gt;&lt;/pre&gt;&lt;font style=&quot;font-size: 14px;&quot; face=&quot;Times New Roman&quot;&gt;&lt;span style=&quot;&quot; lang=&quot;EN-US&quot;&gt;-git: &lt;/span&gt;&lt;span style=&quot;&quot; lang=&quot;EN-US&quot;&gt;String&lt;/span&gt;&lt;br&gt;&lt;span style=&quot;&quot; lang=&quot;EN-US&quot;&gt;&amp;nbsp;&lt;/span&gt;&lt;/font&gt;&lt;br&gt;&lt;/pre&gt;&lt;/pre&gt;" style="text;strokeColor=none;fillColor=none;align=left;verticalAlign=middle;spacingLeft=4;spacingRight=4;overflow=hidden;points=[[0,0.5],[1,0.5]];portConstraint=eastwest;rotatable=0;whiteSpace=wrap;html=1;" parent="9uL9f9SMJdjxr-tkgD8b-12" vertex="1">
          <mxGeometry y="30" width="210" height="100" as="geometry" />
        </mxCell>
        <mxCell id="tNuefEY6y65XnK8-v3uM-2" value="&lt;pre style=&quot;margin: 0cm 25.5pt 0cm 0cm; text-align: justify; line-height: normal; background: white; vertical-align: baseline; font-size: 14px;&quot;&gt;&lt;font style=&quot;font-size: 14px;&quot; face=&quot;Times New Roman&quot;&gt;+ &lt;/font&gt;&lt;font style=&quot;font-size: 14px;&quot;&gt;&lt;font face=&quot;Times New Roman&quot;&gt;initialize(params: &lt;/font&gt;&lt;font face=&quot;Times New Roman&quot;&gt;Hash)&lt;/font&gt;&lt;/font&gt;&lt;/pre&gt;&lt;pre style=&quot;margin: 0cm 25.5pt 0cm 0cm; text-align: justify; line-height: normal; background: white; vertical-align: baseline; font-size: 14px;&quot;&gt;&lt;font style=&quot;font-size: 14px;&quot;&gt;&lt;font face=&quot;Times New Roman&quot;&gt;+ &lt;/font&gt;&lt;font face=&quot;Times New Roman&quot;&gt;id&lt;/font&gt;&lt;/font&gt;&lt;font face=&quot;sd8AbRPiMUZb4e4DyPh1&quot;&gt;(): int&lt;/font&gt;&lt;/pre&gt;&lt;pre style=&quot;border-color: var(--border-color); font-size: 14px; text-align: justify; margin: 0cm 25.5pt 0cm 0cm; line-height: normal; background: white; vertical-align: baseline;&quot;&gt;&lt;font style=&quot;border-color: var(--border-color);&quot;&gt;&lt;font style=&quot;border-color: var(--border-color);&quot; face=&quot;lF6ULn1yz8J9VFr4VgqD&quot;&gt;+ surname(): string&lt;/font&gt;&lt;/font&gt;&lt;/pre&gt;&lt;pre style=&quot;border-color: var(--border-color); font-size: 14px; text-align: justify; margin: 0cm 25.5pt 0cm 0cm; line-height: normal; background: white; vertical-align: baseline;&quot;&gt;&lt;font style=&quot;border-color: var(--border-color);&quot; face=&quot;lF6ULn1yz8J9VFr4VgqD&quot;&gt;&lt;font style=&quot;border-color: var(--border-color);&quot;&gt;&lt;font style=&quot;border-color: var(--border-color);&quot;&gt;+ name&lt;/font&gt;&lt;/font&gt;(): string&lt;/font&gt;&lt;/pre&gt;&lt;pre style=&quot;margin: 0cm 25.5pt 0cm 0cm; text-align: justify; line-height: normal; background: white; vertical-align: baseline; font-size: 14px;&quot;&gt;&lt;font style=&quot;font-family: sd8AbRPiMUZb4e4DyPh1;&quot;&gt;&lt;font style=&quot;font-family: lF6ULn1yz8J9VFr4VgqD; border-color: var(--border-color);&quot;&gt;&lt;font style=&quot;border-color: var(--border-color);&quot;&gt;+ middle_name&lt;/font&gt;&lt;/font&gt;(): string&lt;/font&gt;&lt;/pre&gt;&lt;pre style=&quot;margin: 0cm 25.5pt 0cm 0cm; text-align: justify; line-height: normal; background: white; vertical-align: baseline; font-size: 14px;&quot;&gt;&lt;font style=&quot;font-family: sd8AbRPiMUZb4e4DyPh1;&quot;&gt;+ &lt;/font&gt;&lt;span style=&quot;font-family: sd8AbRPiMUZb4e4DyPh1;&quot;&gt;git(): string&lt;/span&gt;&lt;br&gt;&lt;/pre&gt;&lt;pre style=&quot;margin: 0cm 25.5pt 0cm 0cm; text-align: justify; line-height: normal; background: white; vertical-align: baseline; font-size: 14px;&quot;&gt;&lt;font face=&quot;Fhg8VOXi1VSTIDrwA2gN&quot;&gt;&lt;font style=&quot;font-size: 14px;&quot;&gt;+ id=(&lt;/font&gt;value: int)&lt;/font&gt;&lt;/pre&gt;&lt;pre style=&quot;margin: 0cm 25.5pt 0cm 0cm; text-align: justify; line-height: normal; background: white; vertical-align: baseline; font-size: 14px;&quot;&gt;&lt;div style=&quot;border-color: var(--border-color); font-family: Helvetica; background-color: rgb(251, 251, 251);&quot;&gt;&lt;font style=&quot;border-color: var(--border-color);&quot; face=&quot;lF6ULn1yz8J9VFr4VgqD&quot;&gt;&lt;font style=&quot;border-color: var(--border-color);&quot;&gt;- surname=(names: string)&lt;/font&gt;&lt;br style=&quot;border-color: var(--border-color);&quot;&gt;&lt;/font&gt;&lt;/div&gt;&lt;div style=&quot;border-color: var(--border-color); font-family: Helvetica; background-color: rgb(251, 251, 251);&quot;&gt;&lt;font style=&quot;border-color: var(--border-color);&quot; face=&quot;lF6ULn1yz8J9VFr4VgqD&quot;&gt;-&amp;nbsp;middle_name=(names: string)&lt;/font&gt;&lt;/div&gt;&lt;div style=&quot;border-color: var(--border-color); font-family: Helvetica; background-color: rgb(251, 251, 251);&quot;&gt;&lt;font style=&quot;border-color: var(--border-color);&quot; face=&quot;lF6ULn1yz8J9VFr4VgqD&quot;&gt;&lt;font style=&quot;border-color: var(--border-color);&quot;&gt;&lt;span style=&quot;border-color: var(--border-color); background-color: initial;&quot;&gt;&lt;font style=&quot;border-color: var(--border-color);&quot;&gt;-&amp;nbsp;&lt;/font&gt;&lt;/span&gt;&lt;span style=&quot;border-color: var(--border-color); background-color: initial;&quot;&gt;name=(names: string&lt;/span&gt;&lt;/font&gt;&lt;span style=&quot;border-color: var(--border-color); background-color: initial;&quot;&gt;)&lt;/span&gt;&lt;/font&gt;&lt;/div&gt;&lt;/pre&gt;&lt;div style=&quot;border-color: var(--border-color); text-align: justify;&quot;&gt;&lt;font style=&quot;border-color: var(--border-color); font-size: 14px;&quot; face=&quot;Times New Roman&quot;&gt;+ g&lt;/font&gt;&lt;font style=&quot;border-color: var(--border-color);&quot; face=&quot;Times New Roman&quot;&gt;&lt;font style=&quot;border-color: var(--border-color); font-size: 14px;&quot;&gt;et_contact(): string&lt;/font&gt;&lt;font style=&quot;border-color: var(--border-color); font-size: 14px;&quot;&gt;&lt;br style=&quot;border-color: var(--border-color);&quot;&gt;&lt;/font&gt;&lt;/font&gt;&lt;/div&gt;&lt;pre style=&quot;margin: 0cm 25.5pt 0cm 0cm; text-align: justify; line-height: normal; background: white; vertical-align: baseline; font-size: 14px;&quot;&gt;&lt;font face=&quot;Fhg8VOXi1VSTIDrwA2gN&quot;&gt;&lt;font style=&quot;font-size: 14px;&quot;&gt;+ git=(&lt;/font&gt;value: string)&lt;/font&gt;&lt;/pre&gt;&lt;pre style=&quot;margin: 0cm 25.5pt 0cm 0cm; text-align: justify; line-height: normal; background: white; vertical-align: baseline; font-size: 14px;&quot;&gt;&lt;pre style=&quot;border-color: var(--border-color); margin: 0cm 25.5pt 0cm 0cm; line-height: normal; background-image: initial; background-position: initial; background-size: initial; background-repeat: initial; background-attachment: initial; background-origin: initial; background-clip: initial; vertical-align: baseline;&quot;&gt;&lt;font face=&quot;Fhg8VOXi1VSTIDrwA2gN&quot;&gt;&lt;font style=&quot;border-color: var(--border-color); font-size: 14px;&quot;&gt;+ i&lt;u style=&quot;border-color: var(--border-color);&quot;&gt;d_valid?(id: int&lt;u style=&quot;border-color: var(--border-color);&quot;&gt;)&lt;/u&gt;&lt;/u&gt;&lt;/font&gt;&lt;/font&gt;&lt;/pre&gt;&lt;pre style=&quot;border-color: var(--border-color); margin: 0cm 25.5pt 0cm 0cm; line-height: normal; background-image: initial; background-position: initial; background-size: initial; background-repeat: initial; background-attachment: initial; background-origin: initial; background-clip: initial; vertical-align: baseline;&quot;&gt;&lt;u style=&quot;border-color: var(--border-color); font-family: lF6ULn1yz8J9VFr4VgqD; background-color: rgb(251, 251, 251);&quot;&gt;&lt;font style=&quot;border-color: var(--border-color);&quot;&gt;+&amp;nbsp;&lt;/font&gt;name_valid?(name: sting)&lt;/u&gt;&lt;font face=&quot;Fhg8VOXi1VSTIDrwA2gN&quot;&gt;&lt;font style=&quot;border-color: var(--border-color); font-size: 14px;&quot;&gt;&lt;br&gt;&lt;/font&gt;&lt;/font&gt;&lt;/pre&gt;&lt;pre style=&quot;border-color: var(--border-color); margin: 0cm 25.5pt 0cm 0cm; line-height: normal; background-image: initial; background-position: initial; background-size: initial; background-repeat: initial; background-attachment: initial; background-origin: initial; background-clip: initial; vertical-align: baseline;&quot;&gt;&lt;font face=&quot;Fhg8VOXi1VSTIDrwA2gN&quot;&gt;&lt;font style=&quot;border-color: var(--border-color); font-size: 14px;&quot;&gt;&lt;u style=&quot;border-color: var(--border-color);&quot;&gt;+ git_valid?(git&lt;/u&gt;&lt;/font&gt;: string&lt;u style=&quot;border-color: var(--border-color);&quot;&gt;&lt;span style=&quot;border-color: var(--border-color);&quot; lang=&quot;EN-US&quot;&gt;)&lt;/span&gt;&lt;/u&gt;&lt;/font&gt;&lt;/pre&gt;&lt;/pre&gt;&lt;pre style=&quot;margin: 0cm 25.5pt 0cm 0cm; text-align: justify; line-height: normal; background: white; vertical-align: baseline; font-size: 14px;&quot;&gt;&lt;pre style=&quot;border-color: var(--border-color); margin: 0cm 25.5pt 0cm 0cm; line-height: normal; background-image: initial; background-position: initial; background-size: initial; background-repeat: initial; background-attachment: initial; background-origin: initial; background-clip: initial; vertical-align: baseline;&quot;&gt;&lt;font face=&quot;Fhg8VOXi1VSTIDrwA2gN&quot; style=&quot;border-color: var(--border-color); font-size: 14px;&quot;&gt;+ git_present?(&lt;/font&gt;&lt;font face=&quot;vIFaeoc1TlRz2ehYQDLV&quot; style=&quot;border-color: var(--border-color); font-size: 14px;&quot;&gt;): bool&lt;/font&gt;&lt;/pre&gt;&lt;pre style=&quot;border-color: var(--border-color); margin: 0cm 25.5pt 0cm 0cm; line-height: normal; background-image: initial; background-position: initial; background-size: initial; background-repeat: initial; background-attachment: initial; background-origin: initial; background-clip: initial; vertical-align: baseline;&quot;&gt;&lt;font face=&quot;vIFaeoc1TlRz2ehYQDLV&quot; style=&quot;border-color: var(--border-color); font-size: 14px;&quot;&gt;&lt;div style=&quot;border-color: var(--border-color); font-family: Helvetica; background-color: rgb(251, 251, 251);&quot;&gt;&lt;font style=&quot;border-color: var(--border-color);&quot; face=&quot;QZr4WyLOkKTv8SdLRVV9&quot;&gt;&lt;font style=&quot;border-color: var(--border-color);&quot;&gt;+&amp;nbsp;&lt;/font&gt;contact_present?()&lt;/font&gt;&lt;/div&gt;&lt;div style=&quot;border-color: var(--border-color); font-family: Helvetica; background-color: rgb(251, 251, 251);&quot;&gt;&lt;span style=&quot;border-color: var(--border-color); background-color: initial;&quot;&gt;&lt;font style=&quot;border-color: var(--border-color);&quot; face=&quot;QZr4WyLOkKTv8SdLRVV9&quot;&gt;&lt;font style=&quot;border-color: var(--border-color);&quot;&gt;+ contact_and_git_present?()&lt;/font&gt;&lt;/font&gt;&lt;/span&gt;&lt;/div&gt;&lt;/font&gt;&lt;/pre&gt;&lt;pre style=&quot;border-color: var(--border-color); margin: 0cm 25.5pt 0cm 0cm; line-height: normal; background-image: initial; background-position: initial; background-size: initial; background-repeat: initial; background-attachment: initial; background-origin: initial; background-clip: initial; vertical-align: baseline;&quot;&gt;&lt;font face=&quot;vIFaeoc1TlRz2ehYQDLV&quot; style=&quot;border-color: var(--border-color); font-size: 14px;&quot;&gt;+ initials_name(): string&lt;br&gt;&lt;/font&gt;&lt;/pre&gt;&lt;/pre&gt;" style="text;strokeColor=none;fillColor=none;align=left;verticalAlign=middle;spacingLeft=4;spacingRight=4;overflow=hidden;points=[[0,0.5],[1,0.5]];portConstraint=eastwest;rotatable=0;whiteSpace=wrap;html=1;" parent="9uL9f9SMJdjxr-tkgD8b-12" vertex="1">
          <mxGeometry y="130" width="210" height="340" as="geometry" />
        </mxCell>
        <mxCell id="tNuefEY6y65XnK8-v3uM-3" value="" style="endArrow=none;html=1;rounded=0;entryX=-0.012;entryY=-0.017;entryDx=0;entryDy=0;entryPerimeter=0;exitX=1.009;exitY=-0.017;exitDx=0;exitDy=0;exitPerimeter=0;" parent="9uL9f9SMJdjxr-tkgD8b-12" source="tNuefEY6y65XnK8-v3uM-2" target="tNuefEY6y65XnK8-v3uM-2" edge="1">
          <mxGeometry width="50" height="50" relative="1" as="geometry">
            <mxPoint x="135" y="100" as="sourcePoint" />
            <mxPoint x="185" y="50" as="targetPoint" />
          </mxGeometry>
        </mxCell>
        <mxCell id="FMrj6g29dec6llsaS4fv-2" value="Student" style="swimlane;fontStyle=0;childLayout=stackLayout;horizontal=1;startSize=30;horizontalStack=0;resizeParent=1;resizeParentMax=0;resizeLast=0;collapsible=1;marginBottom=0;whiteSpace=wrap;html=1;" parent="1" vertex="1">
          <mxGeometry x="950" y="860" width="230" height="460" as="geometry">
            <mxRectangle x="905" y="350" width="110" height="30" as="alternateBounds" />
          </mxGeometry>
        </mxCell>
        <mxCell id="FMrj6g29dec6llsaS4fv-3" value="&lt;pre style=&quot;margin-top: 0cm; margin-right: 25.5pt; margin-left: 0cm; text-align: justify; line-height: normal; vertical-align: baseline; font-size: 14px;&quot;&gt;&lt;pre style=&quot;margin: 0cm 25.5pt 0cm 0cm; line-height: normal; background: white; vertical-align: baseline;&quot;&gt;&lt;span style=&quot;font-family: &amp;quot;Times New Roman&amp;quot;; white-space: normal;&quot;&gt;-phone: &lt;/span&gt;&lt;span style=&quot;font-family: &amp;quot;Times New Roman&amp;quot;; white-space: normal; border-color: var(--border-color);&quot; lang=&quot;EN-US&quot;&gt;String&lt;/span&gt;&lt;br&gt;&lt;/pre&gt;&lt;pre style=&quot;margin: 0cm 25.5pt 0cm 0cm; line-height: normal; background: white; vertical-align: baseline;&quot;&gt;&lt;pre style=&quot;border-color: var(--border-color); margin: 0cm 25.5pt 0cm 0cm; line-height: normal; background-image: initial; background-position: initial; background-size: initial; background-repeat: initial; background-attachment: initial; background-origin: initial; background-clip: initial; vertical-align: baseline;&quot;&gt;&lt;font style=&quot;border-color: var(--border-color);&quot; face=&quot;Times New Roman&quot;&gt;&lt;span style=&quot;border-color: var(--border-color);&quot; lang=&quot;EN-US&quot;&gt;-telegram: &lt;/span&gt;&lt;span style=&quot;border-color: var(--border-color);&quot; lang=&quot;EN-US&quot;&gt;String&lt;/span&gt;&lt;br style=&quot;border-color: var(--border-color);&quot;&gt;&lt;span style=&quot;border-color: var(--border-color);&quot; lang=&quot;EN-US&quot;&gt;-email: &lt;/span&gt;&lt;span style=&quot;border-color: var(--border-color);&quot; lang=&quot;EN-US&quot;&gt;String&lt;/span&gt;&lt;/font&gt;&lt;/pre&gt;&lt;/pre&gt;&lt;/pre&gt;" style="text;strokeColor=none;fillColor=none;align=left;verticalAlign=middle;spacingLeft=4;spacingRight=4;overflow=hidden;points=[[0,0.5],[1,0.5]];portConstraint=eastwest;rotatable=0;whiteSpace=wrap;html=1;" parent="FMrj6g29dec6llsaS4fv-2" vertex="1">
          <mxGeometry y="30" width="230" height="70" as="geometry" />
        </mxCell>
        <mxCell id="FMrj6g29dec6llsaS4fv-4" value="&lt;div style=&quot;text-align: justify; font-size: 14px;&quot;&gt;&lt;pre style=&quot;border-color: var(--border-color); margin: 0cm 25.5pt 0cm 0cm; line-height: normal; background: white; vertical-align: baseline;&quot;&gt;&lt;font face=&quot;Times New Roman&quot; style=&quot;border-color: var(--border-color); font-size: 14px;&quot;&gt;+&lt;font style=&quot;font-size: 14px;&quot;&gt; initialize(params: Hash)&lt;/font&gt;&lt;/font&gt;&lt;/pre&gt;&lt;pre style=&quot;border-color: var(--border-color); margin: 0cm 25.5pt 0cm 0cm; line-height: normal; background: white; vertical-align: baseline;&quot;&gt;&lt;font face=&quot;Times New Roman&quot; style=&quot;border-color: var(--border-color); font-size: 14px;&quot;&gt;&lt;font style=&quot;font-size: 14px;&quot;&gt;&lt;pre style=&quot;border-color: var(--border-color); margin: 0cm 25.5pt 0cm 0cm; line-height: normal; background-image: initial; background-position: initial; background-size: initial; background-repeat: initial; background-attachment: initial; background-origin: initial; background-clip: initial; vertical-align: baseline;&quot;&gt;&lt;font style=&quot;border-color: var(--border-color);&quot; face=&quot;sd8AbRPiMUZb4e4DyPh1&quot;&gt;+ telegram(): string&lt;/font&gt;&lt;/pre&gt;&lt;pre style=&quot;border-color: var(--border-color); margin: 0cm 25.5pt 0cm 0cm; line-height: normal; background-image: initial; background-position: initial; background-size: initial; background-repeat: initial; background-attachment: initial; background-origin: initial; background-clip: initial; vertical-align: baseline;&quot;&gt;&lt;font style=&quot;border-color: var(--border-color);&quot; face=&quot;sd8AbRPiMUZb4e4DyPh1&quot;&gt;+ phone(): string&lt;/font&gt;&lt;/pre&gt;&lt;pre style=&quot;border-color: var(--border-color); margin: 0cm 25.5pt 0cm 0cm; line-height: normal; background-image: initial; background-position: initial; background-size: initial; background-repeat: initial; background-attachment: initial; background-origin: initial; background-clip: initial; vertical-align: baseline;&quot;&gt;&lt;font style=&quot;border-color: var(--border-color);&quot; face=&quot;sd8AbRPiMUZb4e4DyPh1&quot;&gt;&lt;font style=&quot;border-color: var(--border-color);&quot;&gt;+ &lt;/font&gt;email(): string&lt;/font&gt;&lt;/pre&gt;&lt;/font&gt;&lt;/font&gt;&lt;/pre&gt;&lt;/div&gt;&lt;div style=&quot;text-align: justify;&quot;&gt;&lt;font face=&quot;lF6ULn1yz8J9VFr4VgqD&quot;&gt;&lt;font style=&quot;font-size: 14px;&quot;&gt;+ get_initials_contact(): string&lt;/font&gt;&lt;br&gt;&lt;/font&gt;&lt;/div&gt;&lt;div style=&quot;text-align: justify;&quot;&gt;&lt;font style=&quot;font-size: 14px; font-family: QZr4WyLOkKTv8SdLRVV9; background-color: initial;&quot;&gt;+&amp;nbsp;&lt;/font&gt;&lt;span style=&quot;font-size: 14px; font-family: QZr4WyLOkKTv8SdLRVV9; background-color: initial;&quot;&gt;contact_present?(): bool&lt;/span&gt;&lt;br&gt;&lt;/div&gt;&lt;div style=&quot;text-align: justify; font-size: 14px;&quot;&gt;&lt;span style=&quot;background-color: initial;&quot;&gt;&lt;font style=&quot;font-size: 14px;&quot; face=&quot;QZr4WyLOkKTv8SdLRVV9&quot;&gt;&lt;font style=&quot;font-size: 14px;&quot;&gt;+ contact_and_git_present?(): bool&lt;/font&gt;&lt;br&gt;&lt;/font&gt;&lt;/span&gt;&lt;/div&gt;&lt;div style=&quot;text-align: justify; font-size: 14px;&quot;&gt;&lt;span style=&quot;background-color: initial;&quot;&gt;&lt;font style=&quot;font-size: 14px;&quot; face=&quot;QZr4WyLOkKTv8SdLRVV9&quot;&gt;&lt;font style=&quot;font-size: 14px;&quot;&gt;+ to_h()&lt;/font&gt;&lt;/font&gt;&lt;/span&gt;&lt;/div&gt;&lt;div style=&quot;text-align: justify; font-size: 14px;&quot;&gt;&lt;span style=&quot;background-color: initial;&quot;&gt;&lt;font style=&quot;font-size: 14px;&quot; face=&quot;QZr4WyLOkKTv8SdLRVV9&quot;&gt;&lt;font style=&quot;font-size: 14px;&quot;&gt;+ ==()&lt;/font&gt;&lt;/font&gt;&lt;/span&gt;&lt;/div&gt;&lt;div style=&quot;text-align: justify; font-size: 14px;&quot;&gt;&lt;font face=&quot;QZr4WyLOkKTv8SdLRVV9&quot; style=&quot;font-size: 14px;&quot;&gt;+ to_s(): string&lt;/font&gt;&lt;/div&gt;&lt;div style=&quot;text-align: justify; font-size: 14px;&quot;&gt;&lt;pre style=&quot;border-color: var(--border-color); margin: 0cm 25.5pt 0cm 0cm; line-height: normal; background: white; vertical-align: baseline;&quot;&gt;&lt;font style=&quot;border-color: var(--border-color);&quot; face=&quot;vIFaeoc1TlRz2ehYQDLV&quot;&gt;+ set_contacts(contacts: Hash)&lt;/font&gt;&lt;/pre&gt;&lt;pre style=&quot;border-color: var(--border-color); margin: 0cm 25.5pt 0cm 0cm; line-height: normal; background: white; vertical-align: baseline;&quot;&gt;&lt;font style=&quot;border-color: var(--border-color);&quot; face=&quot;vIFaeoc1TlRz2ehYQDLV&quot;&gt;&lt;pre style=&quot;border-color: var(--border-color); margin: 0cm 25.5pt 0cm 0cm; line-height: normal; background-image: initial; background-position: initial; background-size: initial; background-repeat: initial; background-attachment: initial; background-origin: initial; background-clip: initial; vertical-align: baseline;&quot;&gt;&lt;font style=&quot;border-color: var(--border-color);&quot; face=&quot;Fhg8VOXi1VSTIDrwA2gN&quot;&gt;&lt;font style=&quot;border-color: var(--border-color);&quot;&gt;&lt;u style=&quot;border-color: var(--border-color);&quot;&gt;+ phone_valid?(&lt;font style=&quot;border-color: var(--border-color);&quot;&gt;p&lt;/font&gt;&lt;font style=&quot;border-color: var(--border-color);&quot;&gt;&lt;font style=&quot;border-color: var(--border-color);&quot;&gt;hone: string&lt;/font&gt;&lt;/font&gt;&lt;u style=&quot;border-color: var(--border-color);&quot;&gt;)&lt;/u&gt;&lt;br style=&quot;border-color: var(--border-color);&quot;&gt;+ telegram_valid?(&lt;font style=&quot;border-color: var(--border-color);&quot;&gt;telegram&lt;/font&gt;: string&lt;u style=&quot;border-color: var(--border-color);&quot;&gt;&lt;br style=&quot;border-color: var(--border-color);&quot;&gt;&lt;/u&gt;&lt;span style=&quot;border-color: var(--border-color);&quot; lang=&quot;EN-US&quot;&gt;&lt;/span&gt;+ email_valid?(email&lt;/u&gt;&lt;/font&gt;: string&lt;u style=&quot;border-color: var(--border-color);&quot;&gt;&lt;span style=&quot;border-color: var(--border-color);&quot; lang=&quot;EN-US&quot;&gt;)&lt;/span&gt;&lt;/u&gt;&lt;/font&gt;&lt;/pre&gt;&lt;/font&gt;&lt;/pre&gt;&lt;/div&gt;&lt;div style=&quot;text-align: justify; font-size: 14px;&quot;&gt;&lt;div style=&quot;border-color: var(--border-color);&quot;&gt;&lt;pre style=&quot;border-color: var(--border-color); margin: 0cm 25.5pt 0cm 0cm; line-height: normal; background: white; vertical-align: baseline;&quot;&gt;&lt;font style=&quot;border-color: var(--border-color);&quot; face=&quot;Fhg8VOXi1VSTIDrwA2gN&quot;&gt;&lt;font style=&quot;border-color: var(--border-color);&quot;&gt;&lt;pre style=&quot;border-color: var(--border-color); margin: 0cm 25.5pt 0cm 0cm; line-height: normal; background-image: initial; background-position: initial; background-size: initial; background-repeat: initial; background-attachment: initial; background-origin: initial; background-clip: initial; vertical-align: baseline;&quot;&gt;&lt;div style=&quot;border-color: var(--border-color); font-family: Helvetica; background-color: rgb(251, 251, 251);&quot;&gt;&lt;font style=&quot;border-color: var(--border-color);&quot; face=&quot;lF6ULn1yz8J9VFr4VgqD&quot;&gt;&lt;font style=&quot;border-color: var(--border-color);&quot;&gt;+ surname=(names: string)&lt;/font&gt;&lt;br style=&quot;border-color: var(--border-color);&quot;&gt;&lt;/font&gt;&lt;/div&gt;&lt;div style=&quot;border-color: var(--border-color); font-family: Helvetica; background-color: rgb(251, 251, 251);&quot;&gt;&lt;font style=&quot;border-color: var(--border-color);&quot; face=&quot;lF6ULn1yz8J9VFr4VgqD&quot;&gt;+&amp;nbsp;middle_name=(names: string)&lt;/font&gt;&lt;/div&gt;&lt;div style=&quot;border-color: var(--border-color); font-family: Helvetica; background-color: rgb(251, 251, 251);&quot;&gt;&lt;font style=&quot;border-color: var(--border-color);&quot; face=&quot;lF6ULn1yz8J9VFr4VgqD&quot;&gt;&lt;font style=&quot;border-color: var(--border-color);&quot;&gt;&lt;span style=&quot;border-color: var(--border-color); background-color: initial;&quot;&gt;+ name=(names: string&lt;/span&gt;&lt;/font&gt;&lt;span style=&quot;border-color: var(--border-color); background-color: initial;&quot;&gt;)&lt;/span&gt;&lt;/font&gt;&lt;/div&gt;&lt;/pre&gt;&lt;/font&gt;&lt;/font&gt;&lt;/pre&gt;&lt;pre style=&quot;border-color: var(--border-color); margin: 0cm 25.5pt 0cm 0cm; line-height: normal; background: white; vertical-align: baseline;&quot;&gt;&lt;font style=&quot;border-color: var(--border-color);&quot; face=&quot;Fhg8VOXi1VSTIDrwA2gN&quot;&gt;&lt;font style=&quot;border-color: var(--border-color);&quot;&gt;- phone=(value&lt;/font&gt;&lt;font style=&quot;border-color: var(--border-color);&quot;&gt;: string)&lt;br style=&quot;border-color: var(--border-color);&quot;&gt;- telegram=(&lt;/font&gt;value: string)&lt;br style=&quot;border-color: var(--border-color);&quot;&gt;&lt;/font&gt;&lt;/pre&gt;&lt;pre style=&quot;border-color: var(--border-color); margin: 0cm 25.5pt 0cm 0cm; line-height: normal; background: white; vertical-align: baseline;&quot;&gt;&lt;font style=&quot;border-color: var(--border-color);&quot; face=&quot;Fhg8VOXi1VSTIDrwA2gN&quot;&gt;&lt;font style=&quot;border-color: var(--border-color);&quot;&gt;- email=(&lt;/font&gt;value: string)&lt;/font&gt;&lt;/pre&gt;&lt;/div&gt;&lt;/div&gt;" style="text;strokeColor=none;fillColor=none;align=left;verticalAlign=middle;spacingLeft=4;spacingRight=4;overflow=hidden;points=[[0,0.5],[1,0.5]];portConstraint=eastwest;rotatable=0;whiteSpace=wrap;html=1;" parent="FMrj6g29dec6llsaS4fv-2" vertex="1">
          <mxGeometry y="100" width="230" height="360" as="geometry" />
        </mxCell>
        <mxCell id="FMrj6g29dec6llsaS4fv-5" value="" style="endArrow=none;html=1;rounded=0;entryX=-0.012;entryY=-0.017;entryDx=0;entryDy=0;entryPerimeter=0;exitX=1.009;exitY=-0.017;exitDx=0;exitDy=0;exitPerimeter=0;" parent="FMrj6g29dec6llsaS4fv-2" source="FMrj6g29dec6llsaS4fv-4" target="FMrj6g29dec6llsaS4fv-4" edge="1">
          <mxGeometry width="50" height="50" relative="1" as="geometry">
            <mxPoint x="135" y="100" as="sourcePoint" />
            <mxPoint x="185" y="50" as="targetPoint" />
          </mxGeometry>
        </mxCell>
        <mxCell id="FMrj6g29dec6llsaS4fv-7" value="StudentShort" style="swimlane;fontStyle=0;childLayout=stackLayout;horizontal=1;startSize=30;horizontalStack=0;resizeParent=1;resizeParentMax=0;resizeLast=0;collapsible=1;marginBottom=0;whiteSpace=wrap;html=1;" parent="1" vertex="1">
          <mxGeometry x="1230" y="340" width="280" height="180" as="geometry">
            <mxRectangle x="905" y="350" width="110" height="30" as="alternateBounds" />
          </mxGeometry>
        </mxCell>
        <mxCell id="FMrj6g29dec6llsaS4fv-8" value="&lt;pre style=&quot;margin-top: 0cm; margin-right: 25.5pt; margin-left: 0cm; text-align: justify; line-height: normal; vertical-align: baseline; font-size: 14px;&quot;&gt;&lt;pre style=&quot;margin: 0cm 25.5pt 0cm 0cm; line-height: normal; background: white; vertical-align: baseline;&quot;&gt;&lt;span style=&quot;font-family: &amp;quot;Times New Roman&amp;quot;;&quot;&gt;- contact: string&lt;/span&gt;&lt;br&gt;&lt;/pre&gt;&lt;pre style=&quot;margin: 0cm 25.5pt 0cm 0cm; line-height: normal; background: white; vertical-align: baseline;&quot;&gt;&lt;pre style=&quot;border-color: var(--border-color); margin: 0cm 25.5pt 0cm 0cm; line-height: normal; background-image: initial; background-position: initial; background-size: initial; background-repeat: initial; background-attachment: initial; background-origin: initial; background-clip: initial; vertical-align: baseline;&quot;&gt;&lt;font face=&quot;Times New Roman&quot; style=&quot;border-color: var(--border-color);&quot;&gt;- initials_nam&lt;/font&gt;&lt;font face=&quot;Times New Roman&quot;&gt;&lt;font style=&quot;border-color: var(--border-color);&quot;&gt;e&lt;/font&gt;: string &lt;/font&gt;&lt;/pre&gt;&lt;/pre&gt;&lt;/pre&gt;" style="text;strokeColor=none;fillColor=none;align=left;verticalAlign=middle;spacingLeft=4;spacingRight=4;overflow=hidden;points=[[0,0.5],[1,0.5]];portConstraint=eastwest;rotatable=0;whiteSpace=wrap;html=1;" parent="FMrj6g29dec6llsaS4fv-7" vertex="1">
          <mxGeometry y="30" width="280" height="50" as="geometry" />
        </mxCell>
        <mxCell id="FMrj6g29dec6llsaS4fv-9" value="&lt;div style=&quot;text-align: justify; font-size: 14px;&quot;&gt;&lt;pre style=&quot;border-color: var(--border-color); margin: 0cm 25.5pt 0cm 0cm; line-height: normal; background: white; vertical-align: baseline;&quot;&gt;&lt;font face=&quot;Times New Roman&quot; style=&quot;border-color: var(--border-color); font-size: 14px;&quot;&gt;- initialize(params: Hash)&lt;/font&gt;&lt;/pre&gt;&lt;/div&gt;&lt;div style=&quot;text-align: justify; font-size: 14px;&quot;&gt;&lt;font face=&quot;uqBS47JGAi58dAgAwIz4&quot; style=&quot;font-size: 14px;&quot;&gt;&lt;u&gt;&lt;font style=&quot;font-size: 14px;&quot;&gt;+ new_obj_student_short(student: Student)&lt;/font&gt;&lt;br&gt;&lt;/u&gt;&lt;/font&gt;&lt;/div&gt;&lt;div style=&quot;text-align: justify; font-size: 14px;&quot;&gt;&lt;font style=&quot;font-size: 14px;&quot;&gt;&lt;font face=&quot;uqBS47JGAi58dAgAwIz4&quot; style=&quot;font-size: 14px;&quot;&gt;&lt;u&gt;+ new_string_student_short(id: int, info: string)&lt;/u&gt;&lt;/font&gt;&lt;/font&gt;&lt;/div&gt;&lt;div style=&quot;text-align: justify; font-size: 14px;&quot;&gt;&lt;font style=&quot;font-size: 14px;&quot;&gt;&lt;font face=&quot;uqBS47JGAi58dAgAwIz4&quot; style=&quot;font-size: 14px;&quot;&gt;+ to_s(): string&lt;/font&gt;&lt;/font&gt;&lt;/div&gt;" style="text;strokeColor=none;fillColor=none;align=left;verticalAlign=middle;spacingLeft=4;spacingRight=4;overflow=hidden;points=[[0,0.5],[1,0.5]];portConstraint=eastwest;rotatable=0;whiteSpace=wrap;html=1;" parent="FMrj6g29dec6llsaS4fv-7" vertex="1">
          <mxGeometry y="80" width="280" height="100" as="geometry" />
        </mxCell>
        <mxCell id="FMrj6g29dec6llsaS4fv-10" value="" style="endArrow=none;html=1;rounded=0;entryX=-0.012;entryY=-0.017;entryDx=0;entryDy=0;entryPerimeter=0;exitX=1.009;exitY=-0.017;exitDx=0;exitDy=0;exitPerimeter=0;" parent="FMrj6g29dec6llsaS4fv-7" source="FMrj6g29dec6llsaS4fv-9" target="FMrj6g29dec6llsaS4fv-9" edge="1">
          <mxGeometry width="50" height="50" relative="1" as="geometry">
            <mxPoint x="135" y="100" as="sourcePoint" />
            <mxPoint x="185" y="50" as="targetPoint" />
          </mxGeometry>
        </mxCell>
        <mxCell id="dLE9neTA3_CVUgVFInnT-2" value="" style="endArrow=block;html=1;rounded=0;endFill=0;exitX=0.5;exitY=0;exitDx=0;exitDy=0;" parent="1" source="FMrj6g29dec6llsaS4fv-2" target="tNuefEY6y65XnK8-v3uM-2" edge="1">
          <mxGeometry width="50" height="50" relative="1" as="geometry">
            <mxPoint x="1290" y="570" as="sourcePoint" />
            <mxPoint x="1340" y="520" as="targetPoint" />
          </mxGeometry>
        </mxCell>
        <mxCell id="dLE9neTA3_CVUgVFInnT-3" value="" style="endArrow=block;html=1;rounded=0;endFill=0;" parent="1" source="FMrj6g29dec6llsaS4fv-7" target="tNuefEY6y65XnK8-v3uM-2" edge="1">
          <mxGeometry width="50" height="50" relative="1" as="geometry">
            <mxPoint x="1290" y="570" as="sourcePoint" />
            <mxPoint x="1340" y="520" as="targetPoint" />
          </mxGeometry>
        </mxCell>
        <mxCell id="lGwNPsNPZNNfn5Xu0jH6-1" value="data_list" style="swimlane;fontStyle=0;childLayout=stackLayout;horizontal=1;startSize=30;horizontalStack=0;resizeParent=1;resizeParentMax=0;resizeLast=0;collapsible=1;marginBottom=0;whiteSpace=wrap;html=1;" parent="1" vertex="1">
          <mxGeometry x="1850" y="570" width="280" height="230" as="geometry">
            <mxRectangle x="905" y="350" width="110" height="30" as="alternateBounds" />
          </mxGeometry>
        </mxCell>
        <mxCell id="lGwNPsNPZNNfn5Xu0jH6-2" value="&lt;font style=&quot;font-size: 14px;&quot; face=&quot;Times New Roman&quot;&gt;-&amp;nbsp;elements&lt;/font&gt;" style="text;strokeColor=none;fillColor=none;align=left;verticalAlign=middle;spacingLeft=4;spacingRight=4;overflow=hidden;points=[[0,0.5],[1,0.5]];portConstraint=eastwest;rotatable=0;whiteSpace=wrap;html=1;" parent="lGwNPsNPZNNfn5Xu0jH6-1" vertex="1">
          <mxGeometry y="30" width="280" height="30" as="geometry" />
        </mxCell>
        <mxCell id="lGwNPsNPZNNfn5Xu0jH6-3" value="&lt;div style=&quot;text-align: justify; font-size: 14px;&quot;&gt;&lt;pre style=&quot;border-color: var(--border-color); margin: 0cm 25.5pt 0cm 0cm; line-height: normal; background: white; vertical-align: baseline;&quot;&gt;&lt;font face=&quot;Times New Roman&quot; style=&quot;border-color: var(--border-color); font-size: 14px;&quot;&gt;+ initialize(elements)&lt;/font&gt;&lt;/pre&gt;&lt;pre style=&quot;border-color: var(--border-color); margin: 0cm 25.5pt 0cm 0cm; line-height: normal; background: white; vertical-align: baseline;&quot;&gt;&lt;font face=&quot;Times New Roman&quot; style=&quot;border-color: var(--border-color); font-size: 14px;&quot;&gt;+ elements=(new_elements: array)&lt;/font&gt;&lt;/pre&gt;&lt;pre style=&quot;border-color: var(--border-color); margin: 0cm 25.5pt 0cm 0cm; line-height: normal; background: white; vertical-align: baseline;&quot;&gt;&lt;font face=&quot;Times New Roman&quot; style=&quot;border-color: var(--border-color); font-size: 14px;&quot;&gt;+ select(number: int)&lt;/font&gt;&lt;/pre&gt;&lt;pre style=&quot;border-color: var(--border-color); margin: 0cm 25.5pt 0cm 0cm; line-height: normal; background: white; vertical-align: baseline;&quot;&gt;&lt;font face=&quot;Times New Roman&quot; style=&quot;border-color: var(--border-color); font-size: 14px;&quot;&gt;+ get_selected(ids: array)\&lt;/font&gt;&lt;/pre&gt;&lt;pre style=&quot;border-color: var(--border-color); margin: 0cm 25.5pt 0cm 0cm; line-height: normal; background: white; vertical-align: baseline;&quot;&gt;&lt;font face=&quot;Times New Roman&quot; style=&quot;border-color: var(--border-color); font-size: 14px;&quot;&gt;+ get_names(): string&lt;/font&gt;&lt;/pre&gt;&lt;pre style=&quot;border-color: var(--border-color); margin: 0cm 25.5pt 0cm 0cm; line-height: normal; background: white; vertical-align: baseline;&quot;&gt;&lt;font face=&quot;Times New Roman&quot; style=&quot;border-color: var(--border-color); font-size: 14px;&quot;&gt;+ get_data(): array&lt;/font&gt;&lt;/pre&gt;&lt;pre style=&quot;border-color: var(--border-color); margin: 0cm 25.5pt 0cm 0cm; line-height: normal; background: white; vertical-align: baseline;&quot;&gt;&lt;font face=&quot;Times New Roman&quot; style=&quot;border-color: var(--border-color); font-size: 14px;&quot;&gt;- attribute_names()&lt;/font&gt;&lt;/pre&gt;&lt;pre style=&quot;border-color: var(--border-color); margin: 0cm 25.5pt 0cm 0cm; line-height: normal; background: white; vertical-align: baseline;&quot;&gt;&lt;font face=&quot;Times New Roman&quot; style=&quot;border-color: var(--border-color); font-size: 14px;&quot;&gt;- extract_attributes() &lt;/font&gt;&lt;/pre&gt;&lt;/div&gt;&lt;div style=&quot;text-align: justify; font-size: 14px;&quot;&gt;&lt;font style=&quot;font-size: 14px;&quot;&gt;&lt;font face=&quot;gNKKAIlRaOvWL0jCGBjO&quot; style=&quot;font-size: 14px;&quot;&gt;+ to_s(): string&lt;/font&gt;&lt;/font&gt;&lt;/div&gt;" style="text;strokeColor=none;fillColor=none;align=left;verticalAlign=middle;spacingLeft=4;spacingRight=4;overflow=hidden;points=[[0,0.5],[1,0.5]];portConstraint=eastwest;rotatable=0;whiteSpace=wrap;html=1;" parent="lGwNPsNPZNNfn5Xu0jH6-1" vertex="1">
          <mxGeometry y="60" width="280" height="170" as="geometry" />
        </mxCell>
        <mxCell id="lGwNPsNPZNNfn5Xu0jH6-4" value="" style="endArrow=none;html=1;rounded=0;entryX=-0.012;entryY=-0.017;entryDx=0;entryDy=0;entryPerimeter=0;exitX=1.009;exitY=-0.017;exitDx=0;exitDy=0;exitPerimeter=0;" parent="lGwNPsNPZNNfn5Xu0jH6-1" source="lGwNPsNPZNNfn5Xu0jH6-3" target="lGwNPsNPZNNfn5Xu0jH6-3" edge="1">
          <mxGeometry width="50" height="50" relative="1" as="geometry">
            <mxPoint x="135" y="100" as="sourcePoint" />
            <mxPoint x="185" y="50" as="targetPoint" />
          </mxGeometry>
        </mxCell>
        <mxCell id="lGwNPsNPZNNfn5Xu0jH6-5" value="Data_table" style="swimlane;fontStyle=0;childLayout=stackLayout;horizontal=1;startSize=30;horizontalStack=0;resizeParent=1;resizeParentMax=0;resizeLast=0;collapsible=1;marginBottom=0;whiteSpace=wrap;html=1;" parent="1" vertex="1">
          <mxGeometry x="1850" y="330" width="302" height="200" as="geometry">
            <mxRectangle x="905" y="350" width="110" height="30" as="alternateBounds" />
          </mxGeometry>
        </mxCell>
        <mxCell id="lGwNPsNPZNNfn5Xu0jH6-6" value="&lt;pre style=&quot;margin-top: 0cm; margin-right: 25.5pt; margin-left: 0cm; text-align: justify; line-height: normal; vertical-align: baseline;&quot;&gt;&lt;pre style=&quot;margin: 0cm 25.5pt 0cm 0cm; line-height: normal; background: white; vertical-align: baseline;&quot;&gt;&lt;font style=&quot;font-size: 14px;&quot; face=&quot;Times New Roman&quot;&gt;- data&lt;/font&gt;&lt;/pre&gt;&lt;/pre&gt;" style="text;strokeColor=none;fillColor=none;align=left;verticalAlign=middle;spacingLeft=4;spacingRight=4;overflow=hidden;points=[[0,0.5],[1,0.5]];portConstraint=eastwest;rotatable=0;whiteSpace=wrap;html=1;" parent="lGwNPsNPZNNfn5Xu0jH6-5" vertex="1">
          <mxGeometry y="30" width="302" height="30" as="geometry" />
        </mxCell>
        <mxCell id="lGwNPsNPZNNfn5Xu0jH6-7" value="&lt;div style=&quot;text-align: justify; font-size: 14px;&quot;&gt;&lt;pre style=&quot;border-color: var(--border-color); margin: 0cm 25.5pt 0cm 0cm; line-height: normal; background: white; vertical-align: baseline;&quot;&gt;&lt;font face=&quot;Times New Roman&quot; style=&quot;border-color: var(--border-color); font-size: 14px;&quot;&gt;+ i&lt;/font&gt;&lt;font face=&quot;Times New Roman&quot;&gt;&lt;font style=&quot;border-color: var(--border-color); font-size: 14px;&quot;&gt;nitialize(data&lt;/font&gt;)&lt;/font&gt;&lt;/pre&gt;&lt;pre style=&quot;border-color: var(--border-color); margin: 0cm 25.5pt 0cm 0cm; line-height: normal; background: white; vertical-align: baseline;&quot;&gt;&lt;font face=&quot;TYpxlgZ0I40BG5SqN_jJ&quot;&gt;&lt;font style=&quot;border-color: var(--border-color); font-size: 14px;&quot;&gt;- data(): &lt;/font&gt;data&lt;/font&gt;&lt;/pre&gt;&lt;pre style=&quot;border-color: var(--border-color); margin: 0cm 25.5pt 0cm 0cm; line-height: normal; background: white; vertical-align: baseline;&quot;&gt;&lt;font face=&quot;TYpxlgZ0I40BG5SqN_jJ&quot;&gt;&lt;font style=&quot;font-size: 14px;&quot;&gt;&lt;font style=&quot;border-color: var(--border-color); font-size: 14px;&quot;&gt;- data=(&lt;/font&gt;&lt;/font&gt;data)&lt;br&gt;&lt;/font&gt;&lt;/pre&gt;&lt;pre style=&quot;border-color: var(--border-color); margin: 0cm 25.5pt 0cm 0cm; line-height: normal; background: white; vertical-align: baseline;&quot;&gt;&lt;font face=&quot;TYpxlgZ0I40BG5SqN_jJ&quot; style=&quot;font-size: 14px;&quot;&gt;+ get_element(row: int,&lt;/font&gt;&lt;font style=&quot;font-size: 14px;&quot; face=&quot;tUWU97JIRqcbzdTVUtgC&quot;&gt; col: int)&lt;/font&gt;&lt;/pre&gt;&lt;pre style=&quot;border-color: var(--border-color); margin: 0cm 25.5pt 0cm 0cm; line-height: normal; background: white; vertical-align: baseline;&quot;&gt;&lt;font face=&quot;tUWU97JIRqcbzdTVUtgC&quot; style=&quot;border-color: var(--border-color); font-size: 14px;&quot;&gt;+ num_rows(): int&lt;/font&gt;&lt;/pre&gt;&lt;/div&gt;&lt;div style=&quot;text-align: justify; font-size: 14px;&quot;&gt;&lt;pre style=&quot;border-color: var(--border-color); margin: 0cm 25.5pt 0cm 0cm; line-height: normal; background: white; vertical-align: baseline;&quot;&gt;&lt;font face=&quot;tUWU97JIRqcbzdTVUtgC&quot; style=&quot;border-color: var(--border-color); font-size: 14px;&quot;&gt;+ num_columns(): int&lt;/font&gt;&lt;/pre&gt;&lt;/div&gt;&lt;div style=&quot;text-align: justify; font-size: 14px;&quot;&gt;&lt;span style=&quot;background-color: initial;&quot;&gt;&lt;font style=&quot;font-size: 14px;&quot; face=&quot;tUWU97JIRqcbzdTVUtgC&quot;&gt;+ to_s(): string&lt;/font&gt;&lt;/span&gt;&lt;br&gt;&lt;/div&gt;" style="text;strokeColor=none;fillColor=none;align=left;verticalAlign=middle;spacingLeft=4;spacingRight=4;overflow=hidden;points=[[0,0.5],[1,0.5]];portConstraint=eastwest;rotatable=0;whiteSpace=wrap;html=1;" parent="lGwNPsNPZNNfn5Xu0jH6-5" vertex="1">
          <mxGeometry y="60" width="302" height="140" as="geometry" />
        </mxCell>
        <mxCell id="lGwNPsNPZNNfn5Xu0jH6-8" value="" style="endArrow=none;html=1;rounded=0;exitX=1.009;exitY=-0.017;exitDx=0;exitDy=0;exitPerimeter=0;entryX=0;entryY=-0.011;entryDx=0;entryDy=0;entryPerimeter=0;" parent="lGwNPsNPZNNfn5Xu0jH6-5" source="lGwNPsNPZNNfn5Xu0jH6-7" target="lGwNPsNPZNNfn5Xu0jH6-7" edge="1">
          <mxGeometry width="50" height="50" relative="1" as="geometry">
            <mxPoint x="135" y="100" as="sourcePoint" />
            <mxPoint x="52" y="78" as="targetPoint" />
          </mxGeometry>
        </mxCell>
        <mxCell id="lGwNPsNPZNNfn5Xu0jH6-9" value="Data_list_student_short" style="swimlane;fontStyle=0;childLayout=stackLayout;horizontal=1;startSize=30;horizontalStack=0;resizeParent=1;resizeParentMax=0;resizeLast=0;collapsible=1;marginBottom=0;whiteSpace=wrap;html=1;" parent="1" vertex="1">
          <mxGeometry x="1890" y="820" width="186" height="80" as="geometry">
            <mxRectangle x="905" y="350" width="110" height="30" as="alternateBounds" />
          </mxGeometry>
        </mxCell>
        <mxCell id="lGwNPsNPZNNfn5Xu0jH6-10" value="&lt;pre style=&quot;margin-top: 0cm; margin-right: 25.5pt; margin-left: 0cm; text-align: justify; line-height: normal; vertical-align: baseline; font-size: 14px;&quot;&gt;&lt;pre style=&quot;margin: 0cm 25.5pt 0cm 0cm; line-height: normal; background: white; vertical-align: baseline;&quot;&gt;&lt;br&gt;&lt;/pre&gt;&lt;/pre&gt;" style="text;strokeColor=none;fillColor=none;align=left;verticalAlign=middle;spacingLeft=4;spacingRight=4;overflow=hidden;points=[[0,0.5],[1,0.5]];portConstraint=eastwest;rotatable=0;whiteSpace=wrap;html=1;" parent="lGwNPsNPZNNfn5Xu0jH6-9" vertex="1">
          <mxGeometry y="30" width="186" as="geometry" />
        </mxCell>
        <mxCell id="lGwNPsNPZNNfn5Xu0jH6-11" value="&lt;div style=&quot;text-align: justify;&quot;&gt;&lt;pre style=&quot;border-color: var(--border-color); margin: 0cm 25.5pt 0cm 0cm; line-height: normal; background: white; vertical-align: baseline;&quot;&gt;&lt;font face=&quot;Times New Roman&quot;&gt;+ attribute_names(): string&lt;/font&gt;&lt;span style=&quot;font-size: 14px;&quot;&gt;&lt;br&gt;&lt;/span&gt;&lt;/pre&gt;&lt;pre style=&quot;border-color: var(--border-color); margin: 0cm 25.5pt 0cm 0cm; line-height: normal; background: white; vertical-align: baseline;&quot;&gt;&lt;font face=&quot;Times New Roman&quot;&gt;+ extract_attributes(student&lt;/font&gt;)&lt;/pre&gt;&lt;/div&gt;" style="text;strokeColor=none;fillColor=none;align=left;verticalAlign=middle;spacingLeft=4;spacingRight=4;overflow=hidden;points=[[0,0.5],[1,0.5]];portConstraint=eastwest;rotatable=0;whiteSpace=wrap;html=1;" parent="lGwNPsNPZNNfn5Xu0jH6-9" vertex="1">
          <mxGeometry y="30" width="186" height="50" as="geometry" />
        </mxCell>
        <mxCell id="lGwNPsNPZNNfn5Xu0jH6-12" value="" style="endArrow=none;html=1;rounded=0;entryX=-0.012;entryY=-0.017;entryDx=0;entryDy=0;entryPerimeter=0;exitX=1.009;exitY=-0.017;exitDx=0;exitDy=0;exitPerimeter=0;" parent="lGwNPsNPZNNfn5Xu0jH6-9" source="lGwNPsNPZNNfn5Xu0jH6-11" target="lGwNPsNPZNNfn5Xu0jH6-11" edge="1">
          <mxGeometry width="50" height="50" relative="1" as="geometry">
            <mxPoint x="135" y="100" as="sourcePoint" />
            <mxPoint x="185" y="50" as="targetPoint" />
          </mxGeometry>
        </mxCell>
        <mxCell id="lGwNPsNPZNNfn5Xu0jH6-13" value="" style="endArrow=open;dashed=1;html=1;dashPattern=1 3;strokeWidth=2;rounded=0;entryX=0.338;entryY=1.019;entryDx=0;entryDy=0;entryPerimeter=0;endFill=0;endSize=10;" parent="1" source="lGwNPsNPZNNfn5Xu0jH6-1" target="lGwNPsNPZNNfn5Xu0jH6-7" edge="1">
          <mxGeometry width="50" height="50" relative="1" as="geometry">
            <mxPoint x="1480" y="1070" as="sourcePoint" />
            <mxPoint x="1530" y="1020" as="targetPoint" />
          </mxGeometry>
        </mxCell>
        <mxCell id="lGwNPsNPZNNfn5Xu0jH6-15" value="" style="endArrow=none;html=1;rounded=0;entryX=0.5;entryY=0;entryDx=0;entryDy=0;exitX=0.468;exitY=1.006;exitDx=0;exitDy=0;exitPerimeter=0;endFill=0;startArrow=block;startFill=0;" parent="1" source="lGwNPsNPZNNfn5Xu0jH6-3" target="lGwNPsNPZNNfn5Xu0jH6-9" edge="1">
          <mxGeometry width="50" height="50" relative="1" as="geometry">
            <mxPoint x="1480" y="1070" as="sourcePoint" />
            <mxPoint x="1530" y="1020" as="targetPoint" />
          </mxGeometry>
        </mxCell>
        <mxCell id="lGwNPsNPZNNfn5Xu0jH6-17" value="" style="endArrow=open;dashed=1;html=1;dashPattern=1 3;strokeWidth=2;rounded=0;entryX=1.001;entryY=0.414;entryDx=0;entryDy=0;exitX=-0.019;exitY=0.103;exitDx=0;exitDy=0;exitPerimeter=0;endFill=0;endSize=10;entryPerimeter=0;" parent="1" source="lGwNPsNPZNNfn5Xu0jH6-11" target="FMrj6g29dec6llsaS4fv-9" edge="1">
          <mxGeometry width="50" height="50" relative="1" as="geometry">
            <mxPoint x="1350" y="1070" as="sourcePoint" />
            <mxPoint x="1400" y="1020" as="targetPoint" />
            <Array as="points">
              <mxPoint x="1820" y="855" />
              <mxPoint x="1820" y="460" />
            </Array>
          </mxGeometry>
        </mxCell>
        <mxCell id="xAYfMiXuokPa2qJttEC--1" value="Students_list" style="swimlane;fontStyle=0;childLayout=stackLayout;horizontal=1;startSize=30;horizontalStack=0;resizeParent=1;resizeParentMax=0;resizeLast=0;collapsible=1;marginBottom=0;whiteSpace=wrap;html=1;" parent="1" vertex="1">
          <mxGeometry x="1380" y="600" width="320" height="330" as="geometry">
            <mxRectangle x="905" y="350" width="110" height="30" as="alternateBounds" />
          </mxGeometry>
        </mxCell>
        <mxCell id="xAYfMiXuokPa2qJttEC--2" value="&lt;pre style=&quot;margin-top: 0cm; margin-right: 25.5pt; margin-left: 0cm; text-align: justify; line-height: normal; vertical-align: baseline; font-size: 14px;&quot;&gt;&lt;pre style=&quot;margin: 0cm 25.5pt 0cm 0cm; line-height: normal; background: white; vertical-align: baseline;&quot;&gt;&lt;font style=&quot;font-size: 14px;&quot; face=&quot;Times New Roman&quot;&gt;-&lt;/font&gt;&lt;font style=&quot;font-size: 14px;&quot; face=&quot;Times New Roman&quot;&gt;file_path: &lt;span style=&quot;border-color: var(--border-color);&quot; lang=&quot;EN-US&quot;&gt;String&lt;/span&gt;&lt;span style=&quot;&quot;&gt;&lt;br&gt;&lt;/span&gt;&lt;/font&gt;&lt;/pre&gt;&lt;pre style=&quot;margin: 0cm 25.5pt 0cm 0cm; line-height: normal; background: white; vertical-align: baseline;&quot;&gt;&lt;pre style=&quot;border-color: var(--border-color); margin: 0cm 25.5pt 0cm 0cm; line-height: normal; background-image: initial; background-position: initial; background-size: initial; background-repeat: initial; background-attachment: initial; background-origin: initial; background-clip: initial; vertical-align: baseline;&quot;&gt;&lt;font face=&quot;vN7vZI9RC2FxKHn3jvaO&quot; style=&quot;border-color: var(--border-color); font-size: 14px;&quot;&gt;&lt;span style=&quot;border-color: var(--border-color);&quot; lang=&quot;EN-US&quot;&gt;-file_strategy: &lt;/span&gt;&lt;span style=&quot;border-color: var(--border-color);&quot; lang=&quot;EN-US&quot;&gt;String&lt;/span&gt;&lt;/font&gt;&lt;/pre&gt;&lt;pre style=&quot;border-color: var(--border-color); margin: 0cm 25.5pt 0cm 0cm; line-height: normal; background-image: initial; background-position: initial; background-size: initial; background-repeat: initial; background-attachment: initial; background-origin: initial; background-clip: initial; vertical-align: baseline;&quot;&gt;&lt;font face=&quot;vN7vZI9RC2FxKHn3jvaO&quot; style=&quot;border-color: var(--border-color); font-size: 14px;&quot;&gt;&lt;span style=&quot;border-color: var(--border-color);&quot; lang=&quot;EN-US&quot;&gt;-students&lt;/span&gt;&lt;/font&gt;&lt;/pre&gt;&lt;/pre&gt;&lt;/pre&gt;" style="text;strokeColor=none;fillColor=none;align=left;verticalAlign=middle;spacingLeft=4;spacingRight=4;overflow=hidden;points=[[0,0.5],[1,0.5]];portConstraint=eastwest;rotatable=0;whiteSpace=wrap;html=1;" parent="xAYfMiXuokPa2qJttEC--1" vertex="1">
          <mxGeometry y="30" width="320" height="70" as="geometry" />
        </mxCell>
        <mxCell id="xAYfMiXuokPa2qJttEC--4" value="" style="endArrow=none;html=1;rounded=0;entryX=-0.012;entryY=-0.017;entryDx=0;entryDy=0;entryPerimeter=0;exitX=1.009;exitY=-0.017;exitDx=0;exitDy=0;exitPerimeter=0;" parent="xAYfMiXuokPa2qJttEC--1" source="xAYfMiXuokPa2qJttEC--3" target="xAYfMiXuokPa2qJttEC--3" edge="1">
          <mxGeometry width="50" height="50" relative="1" as="geometry">
            <mxPoint x="135" y="100" as="sourcePoint" />
            <mxPoint x="185" y="50" as="targetPoint" />
          </mxGeometry>
        </mxCell>
        <mxCell id="xAYfMiXuokPa2qJttEC--3" value="&lt;div style=&quot;text-align: justify; font-size: 14px;&quot;&gt;&lt;pre style=&quot;border-color: var(--border-color); margin: 0cm 25.5pt 0cm 0cm; line-height: normal; background: white; vertical-align: baseline;&quot;&gt;&lt;font face=&quot;Helvetica&quot; style=&quot;border-color: var(--border-color); font-size: 14px;&quot;&gt;+&lt;font style=&quot;font-size: 14px;&quot;&gt; initialize(file_path, file_strategy)&lt;/font&gt;&lt;/font&gt;&lt;/pre&gt;&lt;pre style=&quot;border-color: var(--border-color); margin: 0cm 25.5pt 0cm 0cm; line-height: normal; background: white; vertical-align: baseline;&quot;&gt;&lt;font style=&quot;border-color: var(--border-color); font-size: 14px;&quot;&gt;&lt;font style=&quot;font-size: 14px;&quot;&gt;&lt;pre style=&quot;border-color: var(--border-color); margin: 0cm 25.5pt 0cm 0cm; line-height: normal; background-image: initial; background-position: initial; background-size: initial; background-repeat: initial; background-attachment: initial; background-origin: initial; background-clip: initial; vertical-align: baseline;&quot;&gt;&lt;font style=&quot;border-color: var(--border-color); font-size: 14px;&quot;&gt;&lt;font face=&quot;Vyhq0iGh7wQQkTGgNMaB&quot;&gt;+ &lt;/font&gt;&lt;font face=&quot;Times New Roman&quot;&gt;read()&lt;/font&gt;&lt;/font&gt;&lt;/pre&gt;&lt;pre style=&quot;border-color: var(--border-color); margin: 0cm 25.5pt 0cm 0cm; line-height: normal; background-image: initial; background-position: initial; background-size: initial; background-repeat: initial; background-attachment: initial; background-origin: initial; background-clip: initial; vertical-align: baseline;&quot;&gt;&lt;font face=&quot;Times New Roman&quot; style=&quot;border-color: var(--border-color); font-size: 14px;&quot;&gt;+ write(students)&lt;/font&gt;&lt;/pre&gt;&lt;pre style=&quot;border-color: var(--border-color); margin: 0cm 25.5pt 0cm 0cm; line-height: normal; background-image: initial; background-position: initial; background-size: initial; background-repeat: initial; background-attachment: initial; background-origin: initial; background-clip: initial; vertical-align: baseline;&quot;&gt;&lt;font style=&quot;border-color: var(--border-color); font-size: 14px;&quot;&gt;&lt;font face=&quot;Times New Roman&quot;&gt;&lt;font style=&quot;border-color: var(--border-color); font-size: 14px;&quot;&gt;+ &lt;/font&gt;file_path(): strin&lt;/font&gt;&lt;font face=&quot;Vyhq0iGh7wQQkTGgNMaB&quot;&gt;g&lt;/font&gt;&lt;/font&gt;&lt;/pre&gt;&lt;/font&gt;&lt;/font&gt;&lt;/pre&gt;&lt;/div&gt;&lt;div style=&quot;text-align: justify; font-size: 14px;&quot;&gt;&lt;font face=&quot;Vyhq0iGh7wQQkTGgNMaB&quot; style=&quot;font-size: 14px;&quot;&gt;&lt;font style=&quot;font-size: 14px;&quot;&gt;+ file_strategy(): string&lt;/font&gt;&lt;br&gt;&lt;/font&gt;&lt;/div&gt;&lt;div style=&quot;text-align: justify; font-size: 14px;&quot;&gt;&lt;font face=&quot;Vyhq0iGh7wQQkTGgNMaB&quot; style=&quot;font-size: 14px;&quot;&gt;&lt;font style=&quot;background-color: initial; font-size: 14px;&quot;&gt;+&amp;nbsp;&lt;/font&gt;find_student_by_id?(&lt;span style=&quot;background-color: initial;&quot;&gt;id&lt;/span&gt;&lt;span style=&quot;background-color: initial;&quot;&gt;)&lt;/span&gt;&lt;/font&gt;&lt;/div&gt;&lt;div style=&quot;text-align: justify; font-size: 14px;&quot;&gt;&lt;font face=&quot;Vyhq0iGh7wQQkTGgNMaB&quot; style=&quot;font-size: 14px;&quot;&gt;&lt;font style=&quot;font-size: 14px;&quot;&gt;+ get_k_n_student_short_list?(&lt;/font&gt;&lt;span style=&quot;background-color: initial;&quot;&gt;k, n, data_list&lt;/span&gt;&lt;span style=&quot;background-color: initial;&quot;&gt;)&lt;/span&gt;&lt;/font&gt;&lt;/div&gt;&lt;div style=&quot;text-align: justify; font-size: 14px;&quot;&gt;&lt;font face=&quot;Vyhq0iGh7wQQkTGgNMaB&quot; style=&quot;font-size: 14px;&quot;&gt;+ sort_by_surname_and_initials(): array&lt;/font&gt;&lt;/div&gt;&lt;div style=&quot;text-align: justify; font-size: 14px;&quot;&gt;&lt;pre style=&quot;border-color: var(--border-color); margin: 0cm 25.5pt 0cm 0cm; line-height: normal; background: white; vertical-align: baseline;&quot;&gt;&lt;font face=&quot;Vyhq0iGh7wQQkTGgNMaB&quot; style=&quot;border-color: var(--border-color); font-size: 14px;&quot;&gt;+ add_student(student)&lt;/font&gt;&lt;/pre&gt;&lt;/div&gt;&lt;div style=&quot;text-align: justify; font-size: 14px;&quot;&gt;&lt;div style=&quot;border-color: var(--border-color);&quot;&gt;&lt;pre style=&quot;border-color: var(--border-color); margin: 0cm 25.5pt 0cm 0cm; line-height: normal; background: white; vertical-align: baseline;&quot;&gt;&lt;font style=&quot;border-color: var(--border-color); font-size: 14px;&quot;&gt;&lt;font style=&quot;border-color: var(--border-color); font-size: 14px;&quot;&gt;&lt;pre style=&quot;border-color: var(--border-color); margin: 0cm 25.5pt 0cm 0cm; line-height: normal; background-image: initial; background-position: initial; background-size: initial; background-repeat: initial; background-attachment: initial; background-origin: initial; background-clip: initial; vertical-align: baseline;&quot;&gt;&lt;div style=&quot;border-color: var(--border-color); background-color: rgb(251, 251, 251);&quot;&gt;&lt;font style=&quot;border-color: var(--border-color); font-size: 14px;&quot;&gt;&lt;font face=&quot;Vyhq0iGh7wQQkTGgNMaB&quot;&gt;+&amp;nbsp;r&lt;/font&gt;&lt;font face=&quot;Times New Roman&quot;&gt;eplace_student_by_id(id, updated_student)&lt;/font&gt;&lt;/font&gt;&lt;/div&gt;&lt;div style=&quot;border-color: var(--border-color); background-color: rgb(251, 251, 251);&quot;&gt;&lt;font style=&quot;border-color: var(--border-color); font-size: 14px;&quot;&gt;&lt;font style=&quot;border-color: var(--border-color); font-size: 14px;&quot;&gt;&lt;span style=&quot;border-color: var(--border-color); background-color: initial;&quot;&gt;&lt;font face=&quot;AI7yrtfKhSoCdbaCKEIl&quot;&gt;+ get_student_short_co&lt;/font&gt;&lt;font face=&quot;Vyhq0iGh7wQQkTGgNMaB&quot;&gt;unt(int&lt;/font&gt;&lt;/span&gt;&lt;/font&gt;&lt;span style=&quot;font-family: Vyhq0iGh7wQQkTGgNMaB; border-color: var(--border-color); background-color: initial;&quot;&gt;)&lt;/span&gt;&lt;/font&gt;&lt;/div&gt;&lt;/pre&gt;&lt;/font&gt;&lt;/font&gt;&lt;/pre&gt;&lt;pre style=&quot;border-color: var(--border-color); margin: 0cm 25.5pt 0cm 0cm; line-height: normal; background: white; vertical-align: baseline;&quot;&gt;&lt;font style=&quot;border-color: var(--border-color); font-size: 14px;&quot;&gt;&lt;font face=&quot;Vyhq0iGh7wQQkTGgNMaB&quot; style=&quot;border-color: var(--border-color); font-size: 14px;&quot;&gt;+ delete_student_by_id(int&lt;/font&gt;&lt;font style=&quot;border-color: var(--border-color); font-size: 14px;&quot;&gt;&lt;font face=&quot;Vyhq0iGh7wQQkTGgNMaB&quot; style=&quot;font-size: 14px;&quot;&gt;)&lt;br style=&quot;border-color: var(--border-color);&quot;&gt;&lt;/font&gt;&lt;font style=&quot;font-size: 14px;&quot; face=&quot;Fhg8VOXi1VSTIDrwA2gN&quot;&gt;&lt;br&gt;&lt;/font&gt;&lt;/font&gt;&lt;/font&gt;&lt;/pre&gt;&lt;/div&gt;&lt;/div&gt;" style="text;strokeColor=none;fillColor=none;align=left;verticalAlign=middle;spacingLeft=4;spacingRight=4;overflow=hidden;points=[[0,0.5],[1,0.5]];portConstraint=eastwest;rotatable=0;whiteSpace=wrap;html=1;" parent="xAYfMiXuokPa2qJttEC--1" vertex="1">
          <mxGeometry y="100" width="320" height="230" as="geometry" />
        </mxCell>
        <mxCell id="xAYfMiXuokPa2qJttEC--5" value="Students_list_DB" style="swimlane;fontStyle=0;childLayout=stackLayout;horizontal=1;startSize=30;horizontalStack=0;resizeParent=1;resizeParentMax=0;resizeLast=0;collapsible=1;marginBottom=0;whiteSpace=wrap;html=1;" parent="1" vertex="1">
          <mxGeometry x="1838" y="1180" width="230" height="200" as="geometry">
            <mxRectangle x="905" y="350" width="110" height="30" as="alternateBounds" />
          </mxGeometry>
        </mxCell>
        <mxCell id="xAYfMiXuokPa2qJttEC--6" value="&lt;pre style=&quot;margin-top: 0cm; margin-right: 25.5pt; margin-left: 0cm; text-align: justify; line-height: normal; vertical-align: baseline;&quot;&gt;&lt;pre style=&quot;margin: 0cm 25.5pt 0cm 0cm; line-height: normal; background: white; vertical-align: baseline;&quot;&gt;&lt;font face=&quot;Times New Roman&quot;&gt;- db_manager: hash&lt;/font&gt;&lt;span style=&quot;font-size: 14px;&quot;&gt;&lt;br&gt;&lt;/span&gt;&lt;/pre&gt;&lt;/pre&gt;" style="text;strokeColor=none;fillColor=none;align=left;verticalAlign=middle;spacingLeft=4;spacingRight=4;overflow=hidden;points=[[0,0.5],[1,0.5]];portConstraint=eastwest;rotatable=0;whiteSpace=wrap;html=1;" parent="xAYfMiXuokPa2qJttEC--5" vertex="1">
          <mxGeometry y="30" width="230" height="30" as="geometry" />
        </mxCell>
        <mxCell id="xAYfMiXuokPa2qJttEC--7" value="&lt;div style=&quot;text-align: justify; font-size: 14px;&quot;&gt;&lt;pre style=&quot;border-color: var(--border-color); margin: 0cm 25.5pt 0cm 0cm; line-height: normal; background: white; vertical-align: baseline;&quot;&gt;&lt;font face=&quot;Times New Roman&quot; style=&quot;border-color: var(--border-color); font-size: 14px;&quot;&gt;+&lt;font style=&quot;font-size: 14px;&quot;&gt; initialize(params: Hash)&lt;/font&gt;&lt;/font&gt;&lt;/pre&gt;&lt;pre style=&quot;border-color: var(--border-color); margin: 0cm 25.5pt 0cm 0cm; line-height: normal; background: white; vertical-align: baseline;&quot;&gt;&lt;font face=&quot;Times New Roman&quot; style=&quot;border-color: var(--border-color); font-size: 14px;&quot;&gt;&lt;font style=&quot;font-size: 14px;&quot;&gt;&lt;pre style=&quot;border-color: var(--border-color); margin: 0cm 25.5pt 0cm 0cm; line-height: normal; background-image: initial; background-position: initial; background-size: initial; background-repeat: initial; background-attachment: initial; background-origin: initial; background-clip: initial; vertical-align: baseline;&quot;&gt;&lt;font style=&quot;border-color: var(--border-color);&quot; face=&quot;sd8AbRPiMUZb4e4DyPh1&quot;&gt;+ get_student_by_id()&lt;/font&gt;&lt;/pre&gt;&lt;pre style=&quot;border-color: var(--border-color); margin: 0cm 25.5pt 0cm 0cm; line-height: normal; background-image: initial; background-position: initial; background-size: initial; background-repeat: initial; background-attachment: initial; background-origin: initial; background-clip: initial; vertical-align: baseline;&quot;&gt;&lt;font style=&quot;border-color: var(--border-color);&quot; face=&quot;sd8AbRPiMUZb4e4DyPh1&quot;&gt;&lt;font style=&quot;border-color: var(--border-color);&quot;&gt;+ &lt;/font&gt;get_k_n_student_short_list()&lt;/font&gt;&lt;/pre&gt;&lt;/font&gt;&lt;/font&gt;&lt;/pre&gt;&lt;/div&gt;&lt;div style=&quot;text-align: justify;&quot;&gt;&lt;font face=&quot;lF6ULn1yz8J9VFr4VgqD&quot;&gt;&lt;font style=&quot;&quot;&gt;+ replace_student_by_id()&lt;/font&gt;&lt;br&gt;&lt;/font&gt;&lt;/div&gt;&lt;div style=&quot;text-align: justify;&quot;&gt;&lt;font style=&quot;font-size: 14px; font-family: QZr4WyLOkKTv8SdLRVV9; background-color: initial;&quot;&gt;+&amp;nbsp;&lt;/font&gt;&lt;span style=&quot;background-color: initial;&quot;&gt;&lt;font face=&quot;QZr4WyLOkKTv8SdLRVV9&quot;&gt;add_student()&lt;/font&gt;&lt;/span&gt;&lt;br&gt;&lt;/div&gt;&lt;div style=&quot;text-align: justify;&quot;&gt;&lt;span style=&quot;background-color: initial;&quot;&gt;&lt;font style=&quot;&quot; face=&quot;QZr4WyLOkKTv8SdLRVV9&quot;&gt;&lt;font style=&quot;&quot;&gt;+ delete_student_by_id()&lt;/font&gt;&lt;br&gt;&lt;/font&gt;&lt;/span&gt;&lt;/div&gt;&lt;div style=&quot;text-align: justify;&quot;&gt;&lt;font face=&quot;QZr4WyLOkKTv8SdLRVV9&quot; style=&quot;&quot;&gt;+ get_student_count()&lt;/font&gt;&lt;/div&gt;" style="text;strokeColor=none;fillColor=none;align=left;verticalAlign=middle;spacingLeft=4;spacingRight=4;overflow=hidden;points=[[0,0.5],[1,0.5]];portConstraint=eastwest;rotatable=0;whiteSpace=wrap;html=1;" parent="xAYfMiXuokPa2qJttEC--5" vertex="1">
          <mxGeometry y="60" width="230" height="140" as="geometry" />
        </mxCell>
        <mxCell id="xAYfMiXuokPa2qJttEC--8" value="" style="endArrow=none;html=1;rounded=0;entryX=-0.012;entryY=-0.017;entryDx=0;entryDy=0;entryPerimeter=0;exitX=1.009;exitY=-0.017;exitDx=0;exitDy=0;exitPerimeter=0;" parent="xAYfMiXuokPa2qJttEC--5" source="xAYfMiXuokPa2qJttEC--7" target="xAYfMiXuokPa2qJttEC--7" edge="1">
          <mxGeometry width="50" height="50" relative="1" as="geometry">
            <mxPoint x="135" y="100" as="sourcePoint" />
            <mxPoint x="185" y="50" as="targetPoint" />
          </mxGeometry>
        </mxCell>
        <mxCell id="xAYfMiXuokPa2qJttEC--9" value="Students_list_JSON" style="swimlane;fontStyle=0;childLayout=stackLayout;horizontal=1;startSize=30;horizontalStack=0;resizeParent=1;resizeParentMax=0;resizeLast=0;collapsible=1;marginBottom=0;whiteSpace=wrap;html=1;" parent="1" vertex="1">
          <mxGeometry x="1254" y="1080" width="186" height="80" as="geometry">
            <mxRectangle x="905" y="350" width="110" height="30" as="alternateBounds" />
          </mxGeometry>
        </mxCell>
        <mxCell id="xAYfMiXuokPa2qJttEC--10" value="&lt;pre style=&quot;margin-top: 0cm; margin-right: 25.5pt; margin-left: 0cm; text-align: justify; line-height: normal; vertical-align: baseline; font-size: 14px;&quot;&gt;&lt;pre style=&quot;margin: 0cm 25.5pt 0cm 0cm; line-height: normal; background: white; vertical-align: baseline;&quot;&gt;&lt;br&gt;&lt;/pre&gt;&lt;/pre&gt;" style="text;strokeColor=none;fillColor=none;align=left;verticalAlign=middle;spacingLeft=4;spacingRight=4;overflow=hidden;points=[[0,0.5],[1,0.5]];portConstraint=eastwest;rotatable=0;whiteSpace=wrap;html=1;" parent="xAYfMiXuokPa2qJttEC--9" vertex="1">
          <mxGeometry y="30" width="186" as="geometry" />
        </mxCell>
        <mxCell id="xAYfMiXuokPa2qJttEC--11" value="&lt;div style=&quot;text-align: justify;&quot;&gt;&lt;pre style=&quot;border-color: var(--border-color); margin: 0cm 25.5pt 0cm 0cm; line-height: normal; background: white; vertical-align: baseline;&quot;&gt;&lt;pre style=&quot;border-color: var(--border-color); font-size: 14px; margin: 0cm 25.5pt 0cm 0cm; line-height: normal; background-image: initial; background-position: initial; background-size: initial; background-repeat: initial; background-attachment: initial; background-origin: initial; background-clip: initial; vertical-align: baseline;&quot;&gt;&lt;font style=&quot;border-color: var(--border-color);&quot; face=&quot;Times New Roman&quot;&gt;+ &lt;/font&gt;&lt;font style=&quot;border-color: var(--border-color);&quot; face=&quot;Times New Roman&quot;&gt;read(sting)&lt;/font&gt;&lt;/pre&gt;&lt;pre style=&quot;border-color: var(--border-color); font-size: 14px; margin: 0cm 25.5pt 0cm 0cm; line-height: normal; background-image: initial; background-position: initial; background-size: initial; background-repeat: initial; background-attachment: initial; background-origin: initial; background-clip: initial; vertical-align: baseline;&quot;&gt;&lt;font style=&quot;border-color: var(--border-color);&quot; face=&quot;oRwK_O07nEQaWsV2ROC5&quot;&gt;&lt;font style=&quot;border-color: var(--border-color);&quot;&gt;+ write(string, student&lt;/font&gt;)&lt;/font&gt;&lt;/pre&gt;&lt;/pre&gt;&lt;/div&gt;" style="text;strokeColor=none;fillColor=none;align=left;verticalAlign=middle;spacingLeft=4;spacingRight=4;overflow=hidden;points=[[0,0.5],[1,0.5]];portConstraint=eastwest;rotatable=0;whiteSpace=wrap;html=1;" parent="xAYfMiXuokPa2qJttEC--9" vertex="1">
          <mxGeometry y="30" width="186" height="50" as="geometry" />
        </mxCell>
        <mxCell id="xAYfMiXuokPa2qJttEC--12" value="" style="endArrow=none;html=1;rounded=0;entryX=-0.012;entryY=-0.017;entryDx=0;entryDy=0;entryPerimeter=0;exitX=1.009;exitY=-0.017;exitDx=0;exitDy=0;exitPerimeter=0;" parent="xAYfMiXuokPa2qJttEC--9" source="xAYfMiXuokPa2qJttEC--11" target="xAYfMiXuokPa2qJttEC--11" edge="1">
          <mxGeometry width="50" height="50" relative="1" as="geometry">
            <mxPoint x="135" y="100" as="sourcePoint" />
            <mxPoint x="185" y="50" as="targetPoint" />
          </mxGeometry>
        </mxCell>
        <mxCell id="xAYfMiXuokPa2qJttEC--13" value="Students_list_YAML" style="swimlane;fontStyle=0;childLayout=stackLayout;horizontal=1;startSize=30;horizontalStack=0;resizeParent=1;resizeParentMax=0;resizeLast=0;collapsible=1;marginBottom=0;whiteSpace=wrap;html=1;" parent="1" vertex="1">
          <mxGeometry x="1626" y="1080" width="186" height="80" as="geometry">
            <mxRectangle x="905" y="350" width="110" height="30" as="alternateBounds" />
          </mxGeometry>
        </mxCell>
        <mxCell id="xAYfMiXuokPa2qJttEC--14" value="&lt;pre style=&quot;margin-top: 0cm; margin-right: 25.5pt; margin-left: 0cm; text-align: justify; line-height: normal; vertical-align: baseline; font-size: 14px;&quot;&gt;&lt;pre style=&quot;margin: 0cm 25.5pt 0cm 0cm; line-height: normal; background: white; vertical-align: baseline;&quot;&gt;&lt;br&gt;&lt;/pre&gt;&lt;/pre&gt;" style="text;strokeColor=none;fillColor=none;align=left;verticalAlign=middle;spacingLeft=4;spacingRight=4;overflow=hidden;points=[[0,0.5],[1,0.5]];portConstraint=eastwest;rotatable=0;whiteSpace=wrap;html=1;" parent="xAYfMiXuokPa2qJttEC--13" vertex="1">
          <mxGeometry y="30" width="186" as="geometry" />
        </mxCell>
        <mxCell id="xAYfMiXuokPa2qJttEC--15" value="&lt;div style=&quot;text-align: justify;&quot;&gt;&lt;pre style=&quot;border-color: var(--border-color); margin: 0cm 25.5pt 0cm 0cm; line-height: normal; background: white; vertical-align: baseline;&quot;&gt;&lt;pre style=&quot;border-color: var(--border-color); font-size: 14px; margin: 0cm 25.5pt 0cm 0cm; line-height: normal; background-image: initial; background-position: initial; background-size: initial; background-repeat: initial; background-attachment: initial; background-origin: initial; background-clip: initial; vertical-align: baseline;&quot;&gt;&lt;pre style=&quot;border-color: var(--border-color); font-size: 12px; margin: 0cm 25.5pt 0cm 0cm; line-height: normal; background-image: initial; background-position: initial; background-size: initial; background-repeat: initial; background-attachment: initial; background-origin: initial; background-clip: initial; vertical-align: baseline;&quot;&gt;&lt;pre style=&quot;border-color: var(--border-color); font-size: 14px; margin: 0cm 25.5pt 0cm 0cm; line-height: normal; background-image: initial; background-position: initial; background-size: initial; background-repeat: initial; background-attachment: initial; background-origin: initial; background-clip: initial; vertical-align: baseline;&quot;&gt;&lt;font style=&quot;border-color: var(--border-color);&quot; face=&quot;Times New Roman&quot;&gt;+ &lt;/font&gt;&lt;font style=&quot;border-color: var(--border-color);&quot; face=&quot;Times New Roman&quot;&gt;read(sting)&lt;/font&gt;&lt;/pre&gt;&lt;pre style=&quot;border-color: var(--border-color); font-size: 14px; margin: 0cm 25.5pt 0cm 0cm; line-height: normal; background-image: initial; background-position: initial; background-size: initial; background-repeat: initial; background-attachment: initial; background-origin: initial; background-clip: initial; vertical-align: baseline;&quot;&gt;&lt;font style=&quot;border-color: var(--border-color);&quot; face=&quot;oRwK_O07nEQaWsV2ROC5&quot;&gt;&lt;font style=&quot;border-color: var(--border-color);&quot;&gt;+ write(string, student&lt;/font&gt;)&lt;/font&gt;&lt;/pre&gt;&lt;/pre&gt;&lt;/pre&gt;&lt;/pre&gt;&lt;/div&gt;" style="text;strokeColor=none;fillColor=none;align=left;verticalAlign=middle;spacingLeft=4;spacingRight=4;overflow=hidden;points=[[0,0.5],[1,0.5]];portConstraint=eastwest;rotatable=0;whiteSpace=wrap;html=1;" parent="xAYfMiXuokPa2qJttEC--13" vertex="1">
          <mxGeometry y="30" width="186" height="50" as="geometry" />
        </mxCell>
        <mxCell id="xAYfMiXuokPa2qJttEC--16" value="" style="endArrow=none;html=1;rounded=0;entryX=-0.012;entryY=-0.017;entryDx=0;entryDy=0;entryPerimeter=0;exitX=1.009;exitY=-0.017;exitDx=0;exitDy=0;exitPerimeter=0;" parent="xAYfMiXuokPa2qJttEC--13" source="xAYfMiXuokPa2qJttEC--15" target="xAYfMiXuokPa2qJttEC--15" edge="1">
          <mxGeometry width="50" height="50" relative="1" as="geometry">
            <mxPoint x="135" y="100" as="sourcePoint" />
            <mxPoint x="185" y="50" as="targetPoint" />
          </mxGeometry>
        </mxCell>
        <mxCell id="xAYfMiXuokPa2qJttEC--17" value="&lt;font style=&quot;font-size: 14px;&quot;&gt;File_strategy&lt;/font&gt;" style="swimlane;fontStyle=0;childLayout=stackLayout;horizontal=1;startSize=30;horizontalStack=0;resizeParent=1;resizeParentMax=0;resizeLast=0;collapsible=1;marginBottom=0;whiteSpace=wrap;html=1;" parent="1" vertex="1">
          <mxGeometry x="1440" y="970" width="186" height="80" as="geometry">
            <mxRectangle x="905" y="350" width="110" height="30" as="alternateBounds" />
          </mxGeometry>
        </mxCell>
        <mxCell id="xAYfMiXuokPa2qJttEC--18" value="&lt;pre style=&quot;margin-top: 0cm; margin-right: 25.5pt; margin-left: 0cm; text-align: justify; line-height: normal; vertical-align: baseline; font-size: 14px;&quot;&gt;&lt;pre style=&quot;margin: 0cm 25.5pt 0cm 0cm; line-height: normal; background: white; vertical-align: baseline;&quot;&gt;&lt;br&gt;&lt;/pre&gt;&lt;/pre&gt;" style="text;strokeColor=none;fillColor=none;align=left;verticalAlign=middle;spacingLeft=4;spacingRight=4;overflow=hidden;points=[[0,0.5],[1,0.5]];portConstraint=eastwest;rotatable=0;whiteSpace=wrap;html=1;" parent="xAYfMiXuokPa2qJttEC--17" vertex="1">
          <mxGeometry y="30" width="186" as="geometry" />
        </mxCell>
        <mxCell id="xAYfMiXuokPa2qJttEC--19" value="&lt;div style=&quot;text-align: justify; font-size: 14px;&quot;&gt;&lt;pre style=&quot;border-color: var(--border-color); margin: 0cm 25.5pt 0cm 0cm; line-height: normal; background: white; vertical-align: baseline;&quot;&gt;&lt;font face=&quot;Times New Roman&quot;&gt;+ &lt;/font&gt;&lt;font style=&quot;font-size: 14px;&quot; face=&quot;Times New Roman&quot;&gt;read()&lt;/font&gt;&lt;/pre&gt;&lt;pre style=&quot;border-color: var(--border-color); margin: 0cm 25.5pt 0cm 0cm; line-height: normal; background: white; vertical-align: baseline;&quot;&gt;&lt;font style=&quot;font-size: 14px;&quot; face=&quot;oRwK_O07nEQaWsV2ROC5&quot;&gt;&lt;font style=&quot;white-space: normal; font-size: 14px;&quot;&gt;+ write(&lt;/font&gt;&lt;span style=&quot;white-space: normal;&quot;&gt;)&lt;/span&gt;&lt;/font&gt;&lt;/pre&gt;&lt;/div&gt;" style="text;strokeColor=none;fillColor=none;align=left;verticalAlign=middle;spacingLeft=4;spacingRight=4;overflow=hidden;points=[[0,0.5],[1,0.5]];portConstraint=eastwest;rotatable=0;whiteSpace=wrap;html=1;" parent="xAYfMiXuokPa2qJttEC--17" vertex="1">
          <mxGeometry y="30" width="186" height="50" as="geometry" />
        </mxCell>
        <mxCell id="xAYfMiXuokPa2qJttEC--20" value="" style="endArrow=none;html=1;rounded=0;entryX=-0.012;entryY=-0.017;entryDx=0;entryDy=0;entryPerimeter=0;exitX=1.009;exitY=-0.017;exitDx=0;exitDy=0;exitPerimeter=0;" parent="xAYfMiXuokPa2qJttEC--17" source="xAYfMiXuokPa2qJttEC--19" target="xAYfMiXuokPa2qJttEC--19" edge="1">
          <mxGeometry width="50" height="50" relative="1" as="geometry">
            <mxPoint x="135" y="100" as="sourcePoint" />
            <mxPoint x="185" y="50" as="targetPoint" />
          </mxGeometry>
        </mxCell>
        <mxCell id="xAYfMiXuokPa2qJttEC--21" value="Database_manager" style="swimlane;fontStyle=0;childLayout=stackLayout;horizontal=1;startSize=30;horizontalStack=0;resizeParent=1;resizeParentMax=0;resizeLast=0;collapsible=1;marginBottom=0;whiteSpace=wrap;html=1;" parent="1" vertex="1">
          <mxGeometry x="1850" y="1410" width="230" height="170" as="geometry">
            <mxRectangle x="905" y="350" width="110" height="30" as="alternateBounds" />
          </mxGeometry>
        </mxCell>
        <mxCell id="xAYfMiXuokPa2qJttEC--22" value="&lt;pre style=&quot;margin-top: 0cm; margin-right: 25.5pt; margin-left: 0cm; text-align: justify; line-height: normal; vertical-align: baseline;&quot;&gt;&lt;pre style=&quot;margin: 0cm 25.5pt 0cm 0cm; line-height: normal; background: white; vertical-align: baseline; font-size: 14px;&quot;&gt;&lt;font style=&quot;font-size: 14px;&quot; face=&quot;Times New Roman&quot;&gt;&lt;font style=&quot;font-size: 14px;&quot;&gt;-&amp;nbsp;&lt;/font&gt;instance&lt;/font&gt;&lt;/pre&gt;&lt;/pre&gt;" style="text;strokeColor=none;fillColor=none;align=left;verticalAlign=middle;spacingLeft=4;spacingRight=4;overflow=hidden;points=[[0,0.5],[1,0.5]];portConstraint=eastwest;rotatable=0;whiteSpace=wrap;html=1;" parent="xAYfMiXuokPa2qJttEC--21" vertex="1">
          <mxGeometry y="30" width="230" height="40" as="geometry" />
        </mxCell>
        <mxCell id="xAYfMiXuokPa2qJttEC--23" value="&lt;div style=&quot;text-align: justify; font-size: 14px;&quot;&gt;&lt;pre style=&quot;border-color: var(--border-color); margin: 0cm 25.5pt 0cm 0cm; line-height: normal; background: white; vertical-align: baseline;&quot;&gt;&lt;font face=&quot;Times New Roman&quot; style=&quot;border-color: var(--border-color); font-size: 14px;&quot;&gt;+&lt;font style=&quot;font-size: 14px;&quot;&gt; initialize(params: Hash)&lt;/font&gt;&lt;/font&gt;&lt;/pre&gt;&lt;pre style=&quot;border-color: var(--border-color); margin: 0cm 25.5pt 0cm 0cm; line-height: normal; background: white; vertical-align: baseline;&quot;&gt;&lt;font face=&quot;Times New Roman&quot; style=&quot;border-color: var(--border-color); font-size: 14px;&quot;&gt;&lt;font style=&quot;font-size: 14px;&quot;&gt;&lt;pre style=&quot;border-color: var(--border-color); margin: 0cm 25.5pt 0cm 0cm; line-height: normal; background-image: initial; background-position: initial; background-size: initial; background-repeat: initial; background-attachment: initial; background-origin: initial; background-clip: initial; vertical-align: baseline;&quot;&gt;&lt;font style=&quot;border-color: var(--border-color);&quot; face=&quot;sd8AbRPiMUZb4e4DyPh1&quot;&gt;&lt;u&gt;+ instance()&lt;/u&gt;&lt;/font&gt;&lt;/pre&gt;&lt;pre style=&quot;border-color: var(--border-color); margin: 0cm 25.5pt 0cm 0cm; line-height: normal; background-image: initial; background-position: initial; background-size: initial; background-repeat: initial; background-attachment: initial; background-origin: initial; background-clip: initial; vertical-align: baseline;&quot;&gt;&lt;font style=&quot;border-color: var(--border-color);&quot; face=&quot;sd8AbRPiMUZb4e4DyPh1&quot;&gt;+ execute_query()&lt;/font&gt;&lt;/pre&gt;&lt;pre style=&quot;border-color: var(--border-color); margin: 0cm 25.5pt 0cm 0cm; line-height: normal; background-image: initial; background-position: initial; background-size: initial; background-repeat: initial; background-attachment: initial; background-origin: initial; background-clip: initial; vertical-align: baseline;&quot;&gt;&lt;font style=&quot;border-color: var(--border-color);&quot; face=&quot;sd8AbRPiMUZb4e4DyPh1&quot;&gt;&lt;font style=&quot;border-color: var(--border-color);&quot;&gt;+ &lt;/font&gt;close()&lt;/font&gt;&lt;/pre&gt;&lt;/font&gt;&lt;/font&gt;&lt;/pre&gt;&lt;/div&gt;" style="text;strokeColor=none;fillColor=none;align=left;verticalAlign=middle;spacingLeft=4;spacingRight=4;overflow=hidden;points=[[0,0.5],[1,0.5]];portConstraint=eastwest;rotatable=0;whiteSpace=wrap;html=1;" parent="xAYfMiXuokPa2qJttEC--21" vertex="1">
          <mxGeometry y="70" width="230" height="100" as="geometry" />
        </mxCell>
        <mxCell id="xAYfMiXuokPa2qJttEC--24" value="" style="endArrow=none;html=1;rounded=0;entryX=-0.012;entryY=-0.017;entryDx=0;entryDy=0;entryPerimeter=0;exitX=1.009;exitY=-0.017;exitDx=0;exitDy=0;exitPerimeter=0;" parent="xAYfMiXuokPa2qJttEC--21" source="xAYfMiXuokPa2qJttEC--23" target="xAYfMiXuokPa2qJttEC--23" edge="1">
          <mxGeometry width="50" height="50" relative="1" as="geometry">
            <mxPoint x="135" y="100" as="sourcePoint" />
            <mxPoint x="185" y="50" as="targetPoint" />
          </mxGeometry>
        </mxCell>
        <mxCell id="xAYfMiXuokPa2qJttEC--27" value="" style="endArrow=block;dashed=1;html=1;dashPattern=1 3;strokeWidth=2;rounded=0;entryX=1;entryY=0.5;entryDx=0;entryDy=0;endFill=0;endSize=10;exitX=0.5;exitY=0;exitDx=0;exitDy=0;" parent="1" source="xAYfMiXuokPa2qJttEC--13" target="xAYfMiXuokPa2qJttEC--19" edge="1">
          <mxGeometry width="50" height="50" relative="1" as="geometry">
            <mxPoint x="1971" y="580" as="sourcePoint" />
            <mxPoint x="1962" y="543" as="targetPoint" />
          </mxGeometry>
        </mxCell>
        <mxCell id="xAYfMiXuokPa2qJttEC--28" value="" style="endArrow=block;dashed=1;html=1;dashPattern=1 3;strokeWidth=2;rounded=0;entryX=0;entryY=0.5;entryDx=0;entryDy=0;endFill=0;endSize=10;exitX=0.5;exitY=0;exitDx=0;exitDy=0;" parent="1" source="xAYfMiXuokPa2qJttEC--9" target="xAYfMiXuokPa2qJttEC--19" edge="1">
          <mxGeometry width="50" height="50" relative="1" as="geometry">
            <mxPoint x="1363" y="1037.5" as="sourcePoint" />
            <mxPoint x="1270" y="982.5" as="targetPoint" />
          </mxGeometry>
        </mxCell>
        <mxCell id="xAYfMiXuokPa2qJttEC--30" value="" style="endArrow=open;dashed=1;html=1;dashPattern=1 3;strokeWidth=2;rounded=0;entryX=1.007;entryY=0.535;entryDx=0;entryDy=0;endFill=0;endSize=10;exitX=0;exitY=0.5;exitDx=0;exitDy=0;entryPerimeter=0;" parent="1" source="xAYfMiXuokPa2qJttEC--11" target="FMrj6g29dec6llsaS4fv-4" edge="1">
          <mxGeometry width="50" height="50" relative="1" as="geometry">
            <mxPoint x="1367" y="1100" as="sourcePoint" />
            <mxPoint x="1460" y="1045" as="targetPoint" />
          </mxGeometry>
        </mxCell>
        <mxCell id="xAYfMiXuokPa2qJttEC--31" value="" style="endArrow=open;dashed=1;html=1;dashPattern=1 3;strokeWidth=2;rounded=0;entryX=1.021;entryY=0.68;entryDx=0;entryDy=0;endFill=0;endSize=10;entryPerimeter=0;exitX=0.436;exitY=1.052;exitDx=0;exitDy=0;exitPerimeter=0;" parent="1" source="xAYfMiXuokPa2qJttEC--15" target="FMrj6g29dec6llsaS4fv-4" edge="1">
          <mxGeometry width="50" height="50" relative="1" as="geometry">
            <mxPoint x="1264" y="1145" as="sourcePoint" />
            <mxPoint x="1192" y="1141" as="targetPoint" />
            <Array as="points">
              <mxPoint x="1707" y="1178" />
            </Array>
          </mxGeometry>
        </mxCell>
        <mxCell id="xAYfMiXuokPa2qJttEC--33" value="" style="endArrow=diamondThin;html=1;rounded=0;exitX=0.5;exitY=0;exitDx=0;exitDy=0;endFill=1;endSize=11;" parent="1" source="xAYfMiXuokPa2qJttEC--17" edge="1">
          <mxGeometry width="50" height="50" relative="1" as="geometry">
            <mxPoint x="1590" y="990" as="sourcePoint" />
            <mxPoint x="1533" y="930" as="targetPoint" />
          </mxGeometry>
        </mxCell>
        <mxCell id="xAYfMiXuokPa2qJttEC--34" value="" style="endArrow=block;dashed=1;html=1;dashPattern=1 3;strokeWidth=2;rounded=0;entryX=0.469;entryY=0.995;entryDx=0;entryDy=0;endFill=0;endSize=10;exitX=0.5;exitY=0;exitDx=0;exitDy=0;entryPerimeter=0;" parent="1" source="xAYfMiXuokPa2qJttEC--1" target="FMrj6g29dec6llsaS4fv-9" edge="1">
          <mxGeometry width="50" height="50" relative="1" as="geometry">
            <mxPoint x="1357" y="1090" as="sourcePoint" />
            <mxPoint x="1450" y="1035" as="targetPoint" />
          </mxGeometry>
        </mxCell>
        <mxCell id="xAYfMiXuokPa2qJttEC--35" value="" style="endArrow=diamondThin;html=1;rounded=0;endFill=1;endSize=11;entryX=0.75;entryY=0;entryDx=0;entryDy=0;exitX=0.763;exitY=1.032;exitDx=0;exitDy=0;exitPerimeter=0;" parent="1" source="xAYfMiXuokPa2qJttEC--7" target="xAYfMiXuokPa2qJttEC--21" edge="1">
          <mxGeometry width="50" height="50" relative="1" as="geometry">
            <mxPoint x="2070" y="1315" as="sourcePoint" />
            <mxPoint x="1543" y="940" as="targetPoint" />
          </mxGeometry>
        </mxCell>
        <mxCell id="xAYfMiXuokPa2qJttEC--36" value="" style="endArrow=diamondThin;html=1;rounded=0;exitX=-0.005;exitY=0.76;exitDx=0;exitDy=0;endFill=0;endSize=11;entryX=0.997;entryY=0.031;entryDx=0;entryDy=0;entryPerimeter=0;exitPerimeter=0;" parent="1" source="xAYfMiXuokPa2qJttEC--3" target="FMrj6g29dec6llsaS4fv-2" edge="1">
          <mxGeometry width="50" height="50" relative="1" as="geometry">
            <mxPoint x="1543" y="980" as="sourcePoint" />
            <mxPoint x="1543" y="940" as="targetPoint" />
          </mxGeometry>
        </mxCell>
        <mxCell id="xAYfMiXuokPa2qJttEC--37" value="" style="endArrow=open;dashed=1;html=1;dashPattern=1 3;strokeWidth=2;rounded=0;entryX=0;entryY=0.5;entryDx=0;entryDy=0;endFill=0;endSize=10;exitX=1.005;exitY=0.763;exitDx=0;exitDy=0;exitPerimeter=0;" parent="1" source="xAYfMiXuokPa2qJttEC--3" target="lGwNPsNPZNNfn5Xu0jH6-11" edge="1">
          <mxGeometry width="50" height="50" relative="1" as="geometry">
            <mxPoint x="1264" y="1145" as="sourcePoint" />
            <mxPoint x="1192" y="1141" as="targetPoint" />
          </mxGeometry>
        </mxCell>
        <mxCell id="xAYfMiXuokPa2qJttEC--38" value="" style="endArrow=open;dashed=1;html=1;dashPattern=1 3;strokeWidth=2;rounded=0;entryX=0.648;entryY=1;entryDx=0;entryDy=0;endFill=0;endSize=10;exitX=0.75;exitY=0;exitDx=0;exitDy=0;entryPerimeter=0;" parent="1" source="xAYfMiXuokPa2qJttEC--5" target="lGwNPsNPZNNfn5Xu0jH6-11" edge="1">
          <mxGeometry width="50" height="50" relative="1" as="geometry">
            <mxPoint x="2043.82" y="1124.24" as="sourcePoint" />
            <mxPoint x="1862.18" y="960" as="targetPoint" />
          </mxGeometry>
        </mxCell>
        <mxCell id="xAYfMiXuokPa2qJttEC--39" value="" style="endArrow=open;dashed=1;html=1;dashPattern=1 3;strokeWidth=2;rounded=0;entryX=0.998;entryY=0.798;entryDx=0;entryDy=0;endFill=0;endSize=10;exitX=0.25;exitY=0;exitDx=0;exitDy=0;entryPerimeter=0;" parent="1" source="xAYfMiXuokPa2qJttEC--5" target="FMrj6g29dec6llsaS4fv-9" edge="1">
          <mxGeometry width="50" height="50" relative="1" as="geometry">
            <mxPoint x="1962" y="1114" as="sourcePoint" />
            <mxPoint x="1890" y="1110" as="targetPoint" />
            <Array as="points">
              <mxPoint x="1896" y="1030" />
              <mxPoint x="1760" y="1030" />
              <mxPoint x="1760" y="500" />
            </Array>
          </mxGeometry>
        </mxCell>
        <mxCell id="xAYfMiXuokPa2qJttEC--40" value="" style="endArrow=open;dashed=1;html=1;dashPattern=1 3;strokeWidth=2;rounded=0;entryX=0.666;entryY=1.006;entryDx=0;entryDy=0;endFill=0;endSize=10;exitX=0.022;exitY=1.012;exitDx=0;exitDy=0;entryPerimeter=0;exitPerimeter=0;" parent="1" source="xAYfMiXuokPa2qJttEC--7" target="FMrj6g29dec6llsaS4fv-4" edge="1">
          <mxGeometry width="50" height="50" relative="1" as="geometry">
            <mxPoint x="1972" y="1124" as="sourcePoint" />
            <mxPoint x="1900" y="1120" as="targetPoint" />
            <Array as="points">
              <mxPoint x="1843" y="1580" />
              <mxPoint x="1103" y="1570" />
            </Array>
          </mxGeometry>
        </mxCell>
        <mxCell id="C7apciM11w7pgpHq2GXO-1" value="Student_List_Controller" style="swimlane;fontStyle=0;childLayout=stackLayout;horizontal=1;startSize=30;horizontalStack=0;resizeParent=1;resizeParentMax=0;resizeLast=0;collapsible=1;marginBottom=0;whiteSpace=wrap;html=1;" vertex="1" parent="1">
          <mxGeometry x="1570" y="1200" width="230" height="220" as="geometry">
            <mxRectangle x="905" y="350" width="110" height="30" as="alternateBounds" />
          </mxGeometry>
        </mxCell>
        <mxCell id="C7apciM11w7pgpHq2GXO-2" value="&lt;pre style=&quot;margin-top: 0cm; margin-right: 25.5pt; margin-left: 0cm; text-align: justify; line-height: normal; vertical-align: baseline;&quot;&gt;&lt;pre style=&quot;margin: 0cm 25.5pt 0cm 0cm; line-height: normal; background: white; vertical-align: baseline;&quot;&gt;&lt;font face=&quot;Times New Roman&quot;&gt;- view&lt;/font&gt;&lt;/pre&gt;&lt;pre style=&quot;margin: 0cm 25.5pt 0cm 0cm; line-height: normal; background: white; vertical-align: baseline;&quot;&gt;&lt;font face=&quot;Times New Roman&quot;&gt;- student_list&lt;/font&gt;&lt;/pre&gt;&lt;pre style=&quot;margin: 0cm 25.5pt 0cm 0cm; line-height: normal; background: white; vertical-align: baseline;&quot;&gt;&lt;font face=&quot;Times New Roman&quot;&gt;- data_list&lt;/font&gt;&lt;/pre&gt;&lt;pre style=&quot;margin: 0cm 25.5pt 0cm 0cm; line-height: normal; background: white; vertical-align: baseline;&quot;&gt;&lt;font face=&quot;Times New Roman&quot;&gt;- current_page&lt;/font&gt;&lt;/pre&gt;&lt;/pre&gt;" style="text;strokeColor=none;fillColor=none;align=left;verticalAlign=middle;spacingLeft=4;spacingRight=4;overflow=hidden;points=[[0,0.5],[1,0.5]];portConstraint=eastwest;rotatable=0;whiteSpace=wrap;html=1;" vertex="1" parent="C7apciM11w7pgpHq2GXO-1">
          <mxGeometry y="30" width="230" height="60" as="geometry" />
        </mxCell>
        <mxCell id="C7apciM11w7pgpHq2GXO-3" value="&lt;div style=&quot;text-align: justify;&quot;&gt;&lt;pre style=&quot;border-color: var(--border-color); margin: 0cm 25.5pt 0cm 0cm; line-height: normal; background: white; vertical-align: baseline;&quot;&gt;&lt;font face=&quot;Times New Roman&quot; style=&quot;border-color: var(--border-color); font-size: 12px;&quot;&gt;+&lt;font style=&quot;font-size: 12px;&quot;&gt; initialize()&lt;/font&gt;&lt;/font&gt;&lt;/pre&gt;&lt;pre style=&quot;border-color: var(--border-color); margin: 0cm 25.5pt 0cm 0cm; line-height: normal; background: white; vertical-align: baseline;&quot;&gt;&lt;font face=&quot;Times New Roman&quot; style=&quot;border-color: var(--border-color); font-size: 12px;&quot;&gt;&lt;font style=&quot;font-size: 12px;&quot;&gt;&lt;pre style=&quot;border-color: var(--border-color); margin: 0cm 25.5pt 0cm 0cm; line-height: normal; background-image: initial; background-position: initial; background-size: initial; background-repeat: initial; background-attachment: initial; background-origin: initial; background-clip: initial; vertical-align: baseline;&quot;&gt;&lt;font face=&quot;sd8AbRPiMUZb4e4DyPh1&quot; style=&quot;border-color: var(--border-color); font-size: 12px;&quot;&gt;+ refresh_data&lt;/font&gt;&lt;/pre&gt;&lt;pre style=&quot;border-color: var(--border-color); margin: 0cm 25.5pt 0cm 0cm; line-height: normal; background-image: initial; background-position: initial; background-size: initial; background-repeat: initial; background-attachment: initial; background-origin: initial; background-clip: initial; vertical-align: baseline;&quot;&gt;&lt;font face=&quot;sd8AbRPiMUZb4e4DyPh1&quot; style=&quot;border-color: var(--border-color); font-size: 12px;&quot;&gt;+ student_list()&lt;/font&gt;&lt;/pre&gt;&lt;pre style=&quot;border-color: var(--border-color); margin: 0cm 25.5pt 0cm 0cm; line-height: normal; background-image: initial; background-position: initial; background-size: initial; background-repeat: initial; background-attachment: initial; background-origin: initial; background-clip: initial; vertical-align: baseline;&quot;&gt;&lt;font face=&quot;sd8AbRPiMUZb4e4DyPh1&quot; style=&quot;border-color: var(--border-color); font-size: 12px;&quot;&gt;&lt;font style=&quot;border-color: var(--border-color); font-size: 12px;&quot;&gt;+ &lt;/font&gt;get_student_count&lt;/font&gt;&lt;/pre&gt;&lt;/font&gt;&lt;/font&gt;&lt;/pre&gt;&lt;/div&gt;&lt;div style=&quot;text-align: justify;&quot;&gt;&lt;font face=&quot;lF6ULn1yz8J9VFr4VgqD&quot; style=&quot;font-size: 12px;&quot;&gt;&lt;font style=&quot;font-size: 12px;&quot;&gt;+ next_page&lt;/font&gt;&lt;br&gt;&lt;/font&gt;&lt;/div&gt;&lt;div style=&quot;text-align: justify;&quot;&gt;&lt;font style=&quot;font-size: 12px;&quot;&gt;&lt;font style=&quot;background-color: initial; font-size: 12px; font-family: QZr4WyLOkKTv8SdLRVV9;&quot;&gt;+&amp;nbsp;&lt;/font&gt;&lt;span style=&quot;background-color: initial;&quot;&gt;&lt;font face=&quot;QZr4WyLOkKTv8SdLRVV9&quot; style=&quot;font-size: 12px;&quot;&gt;prev_page&lt;/font&gt;&lt;/span&gt;&lt;br&gt;&lt;/font&gt;&lt;/div&gt;&lt;div style=&quot;text-align: justify;&quot;&gt;&lt;span style=&quot;background-color: initial;&quot;&gt;&lt;font face=&quot;QZr4WyLOkKTv8SdLRVV9&quot; style=&quot;font-size: 12px;&quot;&gt;&lt;font style=&quot;font-size: 12px;&quot;&gt;+ set_page()&lt;/font&gt;&lt;/font&gt;&lt;/span&gt;&lt;/div&gt;&lt;div style=&quot;text-align: justify;&quot;&gt;&lt;span style=&quot;background-color: initial;&quot;&gt;&lt;font face=&quot;QZr4WyLOkKTv8SdLRVV9&quot; style=&quot;font-size: 12px;&quot;&gt;&lt;font style=&quot;font-size: 12px;&quot;&gt;+&amp;nbsp;&lt;/font&gt;&lt;/font&gt;&lt;/span&gt;&lt;span style=&quot;font-family: QZr4WyLOkKTv8SdLRVV9; background-color: initial;&quot;&gt;current_page()&lt;/span&gt;&lt;/div&gt;" style="text;strokeColor=none;fillColor=none;align=left;verticalAlign=middle;spacingLeft=4;spacingRight=4;overflow=hidden;points=[[0,0.5],[1,0.5]];portConstraint=eastwest;rotatable=0;whiteSpace=wrap;html=1;" vertex="1" parent="C7apciM11w7pgpHq2GXO-1">
          <mxGeometry y="90" width="230" height="130" as="geometry" />
        </mxCell>
        <mxCell id="C7apciM11w7pgpHq2GXO-4" value="" style="endArrow=none;html=1;rounded=0;entryX=-0.012;entryY=-0.017;entryDx=0;entryDy=0;entryPerimeter=0;exitX=1.009;exitY=-0.017;exitDx=0;exitDy=0;exitPerimeter=0;" edge="1" parent="C7apciM11w7pgpHq2GXO-1" source="C7apciM11w7pgpHq2GXO-3" target="C7apciM11w7pgpHq2GXO-3">
          <mxGeometry width="50" height="50" relative="1" as="geometry">
            <mxPoint x="135" y="100" as="sourcePoint" />
            <mxPoint x="185" y="50" as="targetPoint" />
          </mxGeometry>
        </mxCell>
        <mxCell id="C7apciM11w7pgpHq2GXO-5" value="Student_List_View" style="swimlane;fontStyle=0;childLayout=stackLayout;horizontal=1;startSize=30;horizontalStack=0;resizeParent=1;resizeParentMax=0;resizeLast=0;collapsible=1;marginBottom=0;whiteSpace=wrap;html=1;" vertex="1" parent="1">
          <mxGeometry x="1290" y="1210" width="230" height="360" as="geometry">
            <mxRectangle x="905" y="350" width="110" height="30" as="alternateBounds" />
          </mxGeometry>
        </mxCell>
        <mxCell id="C7apciM11w7pgpHq2GXO-6" value="&lt;pre style=&quot;margin-top: 0cm; margin-right: 25.5pt; margin-left: 0cm; text-align: justify; line-height: normal; vertical-align: baseline;&quot;&gt;&lt;pre style=&quot;margin: 0cm 25.5pt 0cm 0cm; line-height: normal; background: white; vertical-align: baseline;&quot;&gt;&lt;font face=&quot;Times New Roman&quot;&gt;- controller&lt;/font&gt;&lt;/pre&gt;&lt;pre style=&quot;margin: 0cm 25.5pt 0cm 0cm; line-height: normal; background: white; vertical-align: baseline;&quot;&gt;&lt;font face=&quot;Times New Roman&quot;&gt;- current_page&lt;/font&gt;&lt;/pre&gt;&lt;pre style=&quot;margin: 0cm 25.5pt 0cm 0cm; line-height: normal; background: white; vertical-align: baseline;&quot;&gt;&lt;font face=&quot;Times New Roman&quot;&gt;- items_per_page&lt;/font&gt;&lt;/pre&gt;&lt;pre style=&quot;margin: 0cm 25.5pt 0cm 0cm; line-height: normal; background: white; vertical-align: baseline;&quot;&gt;&lt;font face=&quot;Times New Roman&quot;&gt;- current_page&lt;/font&gt;&lt;/pre&gt;&lt;pre style=&quot;margin: 0cm 25.5pt 0cm 0cm; line-height: normal; background: white; vertical-align: baseline;&quot;&gt;&lt;font face=&quot;Times New Roman&quot;&gt;- sort_order&lt;/font&gt;&lt;/pre&gt;&lt;pre style=&quot;margin: 0cm 25.5pt 0cm 0cm; line-height: normal; background: white; vertical-align: baseline;&quot;&gt;&lt;font face=&quot;Times New Roman&quot;&gt;- current_data&lt;/font&gt;&lt;/pre&gt;&lt;/pre&gt;" style="text;strokeColor=none;fillColor=none;align=left;verticalAlign=middle;spacingLeft=4;spacingRight=4;overflow=hidden;points=[[0,0.5],[1,0.5]];portConstraint=eastwest;rotatable=0;whiteSpace=wrap;html=1;" vertex="1" parent="C7apciM11w7pgpHq2GXO-5">
          <mxGeometry y="30" width="230" height="90" as="geometry" />
        </mxCell>
        <mxCell id="C7apciM11w7pgpHq2GXO-7" value="&lt;div style=&quot;text-align: justify;&quot;&gt;&lt;pre style=&quot;border-color: var(--border-color); margin: 0cm 25.5pt 0cm 0cm; line-height: normal; background: white; vertical-align: baseline;&quot;&gt;&lt;font face=&quot;Times New Roman&quot; style=&quot;border-color: var(--border-color); font-size: 12px;&quot;&gt;+&lt;font style=&quot;font-size: 12px;&quot;&gt; initialize()&lt;/font&gt;&lt;/font&gt;&lt;/pre&gt;&lt;pre style=&quot;border-color: var(--border-color); margin: 0cm 25.5pt 0cm 0cm; line-height: normal; background: white; vertical-align: baseline;&quot;&gt;&lt;font face=&quot;Times New Roman&quot; style=&quot;border-color: var(--border-color); font-size: 12px;&quot;&gt;&lt;font style=&quot;font-size: 12px;&quot;&gt;&lt;pre style=&quot;border-color: var(--border-color); margin: 0cm 25.5pt 0cm 0cm; line-height: normal; background-image: initial; background-position: initial; background-size: initial; background-repeat: initial; background-attachment: initial; background-origin: initial; background-clip: initial; vertical-align: baseline;&quot;&gt;&lt;font face=&quot;sd8AbRPiMUZb4e4DyPh1&quot; style=&quot;border-color: var(--border-color); font-size: 12px;&quot;&gt;+ set_table_params&lt;/font&gt;&lt;/pre&gt;&lt;pre style=&quot;border-color: var(--border-color); margin: 0cm 25.5pt 0cm 0cm; line-height: normal; background-image: initial; background-position: initial; background-size: initial; background-repeat: initial; background-attachment: initial; background-origin: initial; background-clip: initial; vertical-align: baseline;&quot;&gt;&lt;font face=&quot;sd8AbRPiMUZb4e4DyPh1&quot; style=&quot;border-color: var(--border-color); font-size: 12px;&quot;&gt;&lt;font style=&quot;border-color: var(--border-color); font-size: 12px;&quot;&gt;+ &lt;/font&gt;setup_dummy_filter_section&lt;/font&gt;&lt;/pre&gt;&lt;/font&gt;&lt;/font&gt;&lt;/pre&gt;&lt;/div&gt;&lt;div style=&quot;text-align: justify;&quot;&gt;&lt;font face=&quot;lF6ULn1yz8J9VFr4VgqD&quot; style=&quot;font-size: 12px;&quot;&gt;&lt;font style=&quot;font-size: 12px;&quot;&gt;+&amp;nbsp;&lt;/font&gt;&lt;/font&gt;&lt;span style=&quot;font-family: lF6ULn1yz8J9VFr4VgqD; background-color: initial;&quot;&gt;set_table_data()&lt;/span&gt;&lt;/div&gt;&lt;div style=&quot;text-align: justify;&quot;&gt;&lt;font style=&quot;background-color: initial; font-family: QZr4WyLOkKTv8SdLRVV9;&quot;&gt;+&amp;nbsp;&lt;/font&gt;&lt;span style=&quot;font-family: QZr4WyLOkKTv8SdLRVV9; background-color: initial;&quot;&gt;sort_by_fio&lt;/span&gt;&lt;/div&gt;&lt;div style=&quot;text-align: justify;&quot;&gt;&lt;span style=&quot;background-color: initial;&quot;&gt;&lt;font face=&quot;QZr4WyLOkKTv8SdLRVV9&quot; style=&quot;&quot;&gt;&lt;font style=&quot;&quot;&gt;+ setup_tabs&lt;/font&gt;&lt;/font&gt;&lt;/span&gt;&lt;/div&gt;&lt;div style=&quot;text-align: justify;&quot;&gt;&lt;div style=&quot;border-color: var(--border-color);&quot;&gt;&lt;font style=&quot;border-color: var(--border-color);&quot; face=&quot;lF6ULn1yz8J9VFr4VgqD&quot;&gt;&lt;font style=&quot;border-color: var(--border-color);&quot;&gt;+ setup_table&lt;/font&gt;&lt;br style=&quot;border-color: var(--border-color);&quot;&gt;&lt;/font&gt;&lt;/div&gt;&lt;div style=&quot;border-color: var(--border-color);&quot;&gt;&lt;font face=&quot;lF6ULn1yz8J9VFr4VgqD&quot;&gt;+&amp;nbsp;&lt;/font&gt;&lt;font face=&quot;lF6ULn1yz8J9VFr4VgqD&quot;&gt;current_page()&lt;/font&gt;&lt;/div&gt;&lt;div style=&quot;border-color: var(--border-color);&quot;&gt;&lt;font face=&quot;lF6ULn1yz8J9VFr4VgqD&quot;&gt;+&amp;nbsp;&lt;/font&gt;&lt;font face=&quot;lF6ULn1yz8J9VFr4VgqD&quot;&gt;items_per_page()&lt;/font&gt;&lt;/div&gt;&lt;div style=&quot;border-color: var(--border-color);&quot;&gt;&lt;font style=&quot;border-color: var(--border-color);&quot;&gt;&lt;font style=&quot;border-color: var(--border-color); background-color: initial; font-family: QZr4WyLOkKTv8SdLRVV9;&quot;&gt;+&amp;nbsp;&lt;/font&gt;&lt;font style=&quot;border-color: var(--border-color);&quot; face=&quot;QZr4WyLOkKTv8SdLRVV9&quot;&gt;set_column_widths()&lt;/font&gt;&lt;br style=&quot;border-color: var(--border-color);&quot;&gt;&lt;/font&gt;&lt;/div&gt;&lt;div style=&quot;border-color: var(--border-color);&quot;&gt;&lt;font style=&quot;border-color: var(--border-color);&quot;&gt;&lt;font style=&quot;border-color: var(--border-color);&quot;&gt;&lt;span style=&quot;background-color: initial;&quot;&gt;&lt;font face=&quot;QZr4WyLOkKTv8SdLRVV9&quot;&gt;+ setup_pagination&lt;/font&gt;&lt;/span&gt;&lt;/font&gt;&lt;/font&gt;&lt;/div&gt;&lt;div style=&quot;border-color: var(--border-color);&quot;&gt;&lt;font style=&quot;border-color: var(--border-color);&quot; face=&quot;lF6ULn1yz8J9VFr4VgqD&quot;&gt;&lt;font style=&quot;border-color: var(--border-color);&quot;&gt;+ update_page_label&lt;/font&gt;&lt;br style=&quot;border-color: var(--border-color);&quot;&gt;&lt;/font&gt;&lt;/div&gt;&lt;div style=&quot;border-color: var(--border-color);&quot;&gt;&lt;font style=&quot;border-color: var(--border-color);&quot;&gt;&lt;font style=&quot;border-color: var(--border-color); background-color: initial; font-family: QZr4WyLOkKTv8SdLRVV9;&quot;&gt;+&amp;nbsp;&lt;/font&gt;&lt;font style=&quot;border-color: var(--border-color);&quot; face=&quot;QZr4WyLOkKTv8SdLRVV9&quot;&gt;setup_controls&lt;/font&gt;&lt;br style=&quot;border-color: var(--border-color);&quot;&gt;&lt;/font&gt;&lt;/div&gt;&lt;div style=&quot;border-color: var(--border-color);&quot;&gt;&lt;span style=&quot;border-color: var(--border-color); background-color: initial;&quot;&gt;&lt;font style=&quot;border-color: var(--border-color);&quot; face=&quot;QZr4WyLOkKTv8SdLRVV9&quot;&gt;+ update_buttons_state&lt;/font&gt;&lt;/span&gt;&lt;/div&gt;&lt;div style=&quot;border-color: var(--border-color);&quot;&gt;&lt;span style=&quot;border-color: var(--border-color); background-color: initial;&quot;&gt;&lt;font style=&quot;border-color: var(--border-color);&quot; face=&quot;QZr4WyLOkKTv8SdLRVV9&quot;&gt;&lt;div style=&quot;border-color: var(--border-color); font-family: Helvetica;&quot;&gt;&lt;font style=&quot;border-color: var(--border-color);&quot;&gt;&lt;font style=&quot;border-color: var(--border-color);&quot;&gt;&lt;font style=&quot;border-color: var(--border-color);&quot; face=&quot;QZr4WyLOkKTv8SdLRVV9&quot;&gt;+ handle_action()&lt;/font&gt;&lt;/font&gt;&lt;/font&gt;&lt;/div&gt;&lt;div style=&quot;border-color: var(--border-color); font-family: Helvetica;&quot;&gt;&lt;font style=&quot;border-color: var(--border-color);&quot;&gt;&lt;font style=&quot;border-color: var(--border-color); background-color: initial; font-family: QZr4WyLOkKTv8SdLRVV9;&quot;&gt;+&amp;nbsp;&lt;/font&gt;&lt;font style=&quot;border-color: var(--border-color);&quot; face=&quot;QZr4WyLOkKTv8SdLRVV9&quot;&gt;create&lt;/font&gt;&lt;/font&gt;&lt;/div&gt;&lt;/font&gt;&lt;/span&gt;&lt;/div&gt;&lt;/div&gt;" style="text;strokeColor=none;fillColor=none;align=left;verticalAlign=middle;spacingLeft=4;spacingRight=4;overflow=hidden;points=[[0,0.5],[1,0.5]];portConstraint=eastwest;rotatable=0;whiteSpace=wrap;html=1;" vertex="1" parent="C7apciM11w7pgpHq2GXO-5">
          <mxGeometry y="120" width="230" height="240" as="geometry" />
        </mxCell>
        <mxCell id="C7apciM11w7pgpHq2GXO-8" value="" style="endArrow=none;html=1;rounded=0;entryX=-0.012;entryY=-0.017;entryDx=0;entryDy=0;entryPerimeter=0;exitX=1.009;exitY=-0.017;exitDx=0;exitDy=0;exitPerimeter=0;" edge="1" parent="C7apciM11w7pgpHq2GXO-5" source="C7apciM11w7pgpHq2GXO-7" target="C7apciM11w7pgpHq2GXO-7">
          <mxGeometry width="50" height="50" relative="1" as="geometry">
            <mxPoint x="135" y="100" as="sourcePoint" />
            <mxPoint x="185" y="50" as="targetPoint" />
          </mxGeometry>
        </mxCell>
        <mxCell id="C7apciM11w7pgpHq2GXO-9" value="" style="endArrow=diamondThin;html=1;rounded=0;endFill=1;endSize=11;entryX=0;entryY=0.5;entryDx=0;entryDy=0;exitX=1.001;exitY=0.781;exitDx=0;exitDy=0;exitPerimeter=0;dashed=1;" edge="1" parent="1" source="C7apciM11w7pgpHq2GXO-6">
          <mxGeometry width="50" height="50" relative="1" as="geometry">
            <mxPoint x="1530" y="1310" as="sourcePoint" />
            <mxPoint x="1570" y="1310" as="targetPoint" />
          </mxGeometry>
        </mxCell>
        <mxCell id="C7apciM11w7pgpHq2GXO-10" value="" style="endArrow=diamondThin;html=1;rounded=0;endFill=1;endSize=11;entryX=1.012;entryY=0.211;entryDx=0;entryDy=0;exitX=0.065;exitY=1.051;exitDx=0;exitDy=0;exitPerimeter=0;entryPerimeter=0;dashed=1;" edge="1" parent="1" source="lGwNPsNPZNNfn5Xu0jH6-11" target="C7apciM11w7pgpHq2GXO-2">
          <mxGeometry width="50" height="50" relative="1" as="geometry">
            <mxPoint x="1530" y="1320" as="sourcePoint" />
            <mxPoint x="1580" y="1320" as="targetPoint" />
          </mxGeometry>
        </mxCell>
        <mxCell id="C7apciM11w7pgpHq2GXO-11" value="" style="endArrow=diamondThin;html=1;rounded=0;endFill=1;endSize=11;entryX=1.013;entryY=0.088;entryDx=0;entryDy=0;exitX=0.997;exitY=1.001;exitDx=0;exitDy=0;exitPerimeter=0;entryPerimeter=0;dashed=1;" edge="1" parent="1" source="xAYfMiXuokPa2qJttEC--3" target="C7apciM11w7pgpHq2GXO-1">
          <mxGeometry width="50" height="50" relative="1" as="geometry">
            <mxPoint x="1530" y="1320" as="sourcePoint" />
            <mxPoint x="1580" y="1320" as="targetPoint" />
            <Array as="points">
              <mxPoint x="1706" y="1050" />
              <mxPoint x="1830" y="1050" />
              <mxPoint x="1820" y="1140" />
            </Array>
          </mxGeometry>
        </mxCell>
      </root>
    </mxGraphModel>
  </diagram>
</mxfile>
